<?xml version="1.0" standalone="no"?>
<!DOCTYPE svg PUBLIC "-//W3C//DTD SVG 20010904//EN"
 "http://www.w3.org/TR/2001/REC-SVG-20010904/DTD/svg10.dtd">
<svg version="1.0" xmlns="http://www.w3.org/2000/svg"
 width="1080.000000pt" height="1080.000000pt" viewBox="0 0 1080.000000 1080.000000"
 preserveAspectRatio="xMidYMid meet">
<metadata>
Created by potrace 1.14, written by Peter Selinger 2001-2017
</metadata>
<g transform="translate(0.000000,1080.000000) scale(0.100000,-0.100000)"
fill="#000000" stroke="none">
<path d="M5200 9150 c-145 -11 -368 -26 -675 -45 -132 -8 -307 -19 -390 -25
-181 -12 -398 -25 -725 -45 -261 -16 -463 -29 -717 -45 -242 -16 -788 -49
-967 -60 -89 -5 -226 -14 -306 -19 -80 -6 -257 -17 -395 -26 -498 -30 -562
-34 -690 -45 -181 -15 -197 -19 -207 -55 -12 -47 -12 -6848 0 -6872 10 -19 25
-20 209 -26 109 -4 1076 -9 2148 -13 1073 -3 1960 -7 1973 -10 30 -6 25 -26
-35 -124 -26 -41 -60 -100 -76 -130 -17 -30 -41 -72 -54 -92 -13 -21 -23 -40
-23 -43 0 -6 -75 -159 -102 -209 -23 -42 -22 -79 2 -118 11 -18 20 -36 20 -39
0 -3 -17 -23 -38 -45 -49 -49 -82 -104 -106 -172 -14 -42 -17 -74 -14 -155 3
-90 8 -110 36 -168 67 -139 218 -239 361 -239 53 0 153 29 200 57 43 27 130
121 137 148 3 14 10 25 14 25 5 0 14 25 21 55 7 31 17 59 22 62 5 3 37 -7 71
-22 101 -46 148 -62 276 -96 47 -12 214 -46 268 -54 56 -9 66 -26 86 -150 39
-229 47 -246 114 -228 20 6 66 16 102 23 36 6 110 22 165 35 55 13 143 33 195
45 52 12 140 32 195 44 55 13 154 36 220 51 373 83 348 71 331 159 -8 43 -7
51 9 62 10 8 28 14 39 15 12 0 41 10 66 22 51 26 50 21 32 162 -9 69 -8 82 5
97 9 10 21 18 27 18 10 0 106 62 255 164 126 86 323 248 422 346 143 143 229
284 229 376 0 45 -32 126 -80 206 -21 36 -47 85 -56 109 -9 24 -30 58 -46 75
-27 29 -28 31 -11 46 17 14 196 92 403 174 47 19 92 38 101 43 8 5 51 23 94
41 44 17 94 38 112 46 18 8 48 21 67 29 19 8 37 15 40 15 3 0 29 11 58 24 29
13 82 36 118 51 36 15 83 35 105 45 56 26 94 42 225 95 63 26 133 55 155 65
22 10 80 35 130 55 49 21 112 48 140 60 27 12 190 82 360 155 171 73 328 140
350 150 99 44 354 150 361 150 19 0 84 36 89 50 4 8 9 393 12 855 6 768 5 841
-10 853 -18 15 -459 36 -1002 47 -159 3 -354 8 -433 11 -166 7 -147 -9 -182
149 -136 617 -452 1275 -864 1800 -169 215 -347 403 -511 540 -33 28 -62 53
-65 56 -11 13 -180 137 -237 174 -34 22 -67 50 -72 63 -7 15 -11 205 -11 557
0 527 0 534 -20 545 -12 6 -29 8 -39 5 -10 -3 -106 1 -212 10 -328 25 -724 41
-1474 59 -115 2 -262 1 -325 -4z m850 -90 c237 -12 281 -25 110 -33 -121 -5
-461 -26 -780 -47 -85 -6 -227 -14 -315 -20 -88 -5 -185 -11 -215 -14 -30 -3
-104 -8 -165 -11 -60 -3 -213 -12 -340 -20 -304 -20 -507 -33 -695 -45 -85 -5
-225 -14 -310 -19 -85 -6 -238 -15 -340 -21 -102 -6 -224 -15 -271 -21 -47 -5
-121 -9 -165 -9 -43 0 -135 -4 -204 -10 -162 -13 -391 -29 -555 -40 -71 -5
-147 -12 -168 -16 -25 -4 -37 -3 -37 5 0 7 -19 11 -47 11 -27 0 -104 4 -173
10 -69 5 -165 13 -215 17 l-90 7 60 7 c57 7 234 19 580 39 83 5 260 16 395 25
341 21 518 33 710 44 91 6 275 18 410 26 135 9 317 20 405 26 88 5 225 13 305
19 80 5 219 14 310 19 167 10 373 24 620 41 74 5 225 15 335 21 110 6 252 14
315 18 124 8 241 6 530 -9z m1120 -530 c0 -239 -2 -444 -4 -455 -3 -19 -34
-23 -46 -6 -3 4 -30 17 -60 30 -30 13 -84 37 -120 53 -36 17 -74 35 -85 40
-19 8 -42 15 -184 54 -176 48 -526 45 -688 -6 -34 -11 -69 -20 -78 -20 -17 0
-20 22 -5 48 18 33 40 114 52 190 8 58 8 87 -2 126 -17 68 -61 136 -112 173
-42 30 -212 93 -252 93 -21 1 -21 1 -1 13 11 6 79 14 150 18 314 16 1055 65
1195 78 47 5 120 8 163 7 l78 -1 -1 -435z m-2037 290 c173 -25 365 -100 436
-171 87 -88 121 -193 121 -379 l0 -129 -47 15 c-69 21 -174 41 -283 54 -79 9
-110 8 -185 -5 -172 -30 -397 -94 -411 -116 -3 -5 -16 -9 -30 -9 -13 0 -24 -4
-24 -9 0 -5 -10 -11 -22 -15 -29 -7 -217 -114 -242 -138 -11 -10 -29 -21 -40
-24 -22 -7 -91 -57 -116 -84 -8 -9 -46 -41 -85 -72 -83 -67 -144 -129 -256
-258 -45 -52 -93 -108 -107 -124 -14 -16 -56 -72 -93 -125 -38 -53 -72 -100
-77 -106 -4 -5 -39 -59 -78 -120 -106 -166 -172 -288 -262 -485 -14 -30 -29
-64 -35 -74 -18 -37 -127 -317 -127 -326 0 -6 -8 -29 -19 -53 -41 -92 -77
-220 -116 -402 -47 -228 -61 -295 -135 -675 -28 -140 -55 -280 -61 -310 -16
-83 -57 -197 -96 -269 -18 -35 -33 -71 -31 -80 1 -9 -2 -23 -7 -31 -6 -8 -15
-24 -20 -35 -14 -26 -112 -92 -150 -100 -85 -17 -93 -17 -110 3 -19 22 -50 19
-60 -5 -18 -50 90 -100 194 -90 78 7 219 57 283 99 29 20 81 65 116 102 62 65
63 65 72 40 6 -14 10 -58 10 -99 l0 -73 -32 -12 c-33 -12 -95 -29 -198 -55
-137 -34 -302 -78 -510 -135 -241 -67 -272 -75 -322 -88 -18 -5 -99 -28 -181
-52 -81 -24 -150 -41 -153 -37 -11 10 -26 2319 -20 3112 3 435 2 1004 -2 1265
-4 261 -4 478 1 481 4 3 116 11 250 18 133 7 251 14 262 17 11 2 106 9 210 14
105 5 294 16 420 25 322 22 503 33 705 45 96 5 245 14 330 19 85 6 232 15 325
21 94 6 217 15 275 20 58 6 148 11 200 11 52 1 124 5 160 9 101 11 294 11 373
0z m576 -106 c28 -14 51 -29 51 -34 0 -5 11 -12 25 -16 44 -11 77 -110 64
-194 -15 -95 -24 -125 -39 -125 -19 0 -26 45 -8 56 10 7 9 9 -4 9 -10 0 -18 8
-18 18 0 40 -74 210 -97 225 -7 4 -13 14 -13 22 0 8 -8 20 -18 27 -59 42 -20
51 57 12z m-5305 -51 c42 2 76 0 76 -4 0 -5 -9 -9 -20 -9 -11 0 -20 -3 -20 -7
0 -5 -27 -6 -60 -5 -38 3 -60 0 -60 -7 0 -15 -79 -9 -85 7 -3 7 4 12 18 12 13
0 32 6 43 14 12 9 21 11 25 4 4 -6 36 -8 83 -5z m216 -13 c-24 -8 -24 -8 -2
-9 12 -1 22 -7 22 -16 0 -12 -15 -15 -79 -15 -61 0 -80 3 -85 15 -4 12 3 15
34 15 21 0 42 5 45 10 3 6 25 10 48 9 36 -1 38 -2 17 -9z m498 -21 c2 -5 37
-9 78 -9 58 0 73 -3 68 -12 -6 -10 -4 -10 7 -2 8 7 29 9 48 7 23 -4 29 -8 20
-14 -11 -7 -10 -9 3 -9 9 0 18 5 20 11 2 5 23 13 47 16 32 4 42 3 37 -5 -4 -7
-1 -12 6 -13 10 0 10 -2 1 -6 -20 -8 -15 -23 7 -23 15 0 20 7 20 28 0 19 3 23
9 13 5 -7 8 -59 8 -115 -1 -98 -1 -98 -4 -18 l-4 82 -44 0 -45 0 0 -80 0 -80
-40 -1 c-22 -1 -80 -3 -130 -4 -49 -1 -94 -3 -100 -4 -6 0 -10 -33 -10 -76 l0
-75 80 0 80 0 0 -75 c0 -69 2 -76 23 -84 12 -5 33 -4 47 0 22 8 23 8 8 -5 -10
-7 -18 -27 -18 -44 0 -27 -4 -30 -36 -34 -30 -4 -37 -1 -45 19 -6 16 -17 23
-34 23 -14 0 -34 9 -45 20 -11 11 -30 20 -42 20 -17 0 -19 -3 -9 -9 12 -7 12
-13 0 -40 -8 -17 -17 -31 -21 -31 -5 0 -8 -15 -8 -32 0 -42 -10 -78 -21 -78
-5 0 -9 7 -9 15 0 8 -7 15 -15 15 -11 0 -15 -11 -15 -40 0 -36 -3 -40 -24 -40
-23 0 -24 -4 -31 -80 -13 -144 -25 -85 -25 120 l0 200 -40 0 c-34 0 -40 3 -40
20 0 20 -6 21 -92 19 -51 0 -105 2 -120 6 -18 5 -28 3 -28 -4 0 -6 7 -11 15
-11 8 0 15 -8 15 -17 0 -16 -10 -18 -95 -15 l-95 4 0 -81 c0 -79 1 -81 24 -81
24 0 24 0 31 -160 5 -109 11 -160 19 -160 8 0 12 48 14 157 1 87 7 160 12 163
5 3 10 23 13 45 l4 40 1 -42 c1 -25 7 -43 14 -43 8 0 9 -31 4 -117 -18 -279
-18 -283 3 -283 10 0 21 6 24 14 4 10 32 17 84 22 43 4 80 7 83 7 3 0 20 -4
38 -8 20 -4 32 -3 32 4 0 6 -7 11 -15 11 -10 0 -15 10 -15 30 0 17 5 30 10 30
6 0 15 10 20 23 8 21 9 20 11 -8 1 -16 1 -33 0 -37 -3 -19 31 -6 39 15 l9 22
7 -22 c5 -19 13 -23 50 -23 41 0 43 2 53 38 14 47 14 119 1 124 -14 4 0 78 14
78 9 0 11 -18 8 -57 -6 -83 13 -205 34 -220 12 -9 17 -25 16 -54 -3 -57 13
-69 92 -69 l66 0 0 40 c0 22 -4 40 -10 40 -20 0 -10 21 14 30 20 7 26 18 31
57 10 74 13 81 14 38 1 -22 8 -51 16 -65 14 -25 14 -25 15 -2 0 18 6 22 30 22
28 0 30 2 30 40 0 22 5 40 10 40 6 0 10 -34 10 -82 0 -46 3 -100 6 -120 6 -35
5 -38 -17 -38 l-25 0 3 -362 c1 -200 2 -380 3 -400 0 -27 4 -38 15 -38 8 0 15
9 15 20 0 11 5 20 10 20 6 0 10 -9 10 -20 0 -11 -4 -20 -10 -20 -5 0 -10 -9
-10 -19 0 -11 5 -23 10 -26 6 -4 10 -62 10 -141 0 -117 -2 -134 -16 -134 -9 0
-23 -8 -30 -17 -13 -17 -15 -17 -28 0 -33 43 -43 8 -26 -98 l7 -50 2 41 c1 51
24 85 43 66 11 -11 11 -14 0 -21 -11 -6 -13 -42 -11 -154 3 -141 -2 -184 -16
-135 -3 13 -10 32 -15 43 -5 11 -12 68 -15 128 -4 59 -11 110 -16 113 -5 3 -9
16 -9 30 0 25 -15 33 -23 12 -3 -8 -9 -1 -16 15 -9 24 -16 27 -53 27 -33 0
-46 -5 -56 -21 -10 -16 -16 -18 -27 -9 -8 6 -19 9 -25 5 -5 -3 -10 1 -10 9 0
12 -10 16 -40 16 l-40 0 0 -41 0 -41 45 4 45 3 -6 -35 c-7 -45 -35 -123 -47
-131 -4 -3 -10 -48 -12 -100 -2 -52 -8 -105 -13 -119 l-11 -25 0 24 c-1 17 -5
22 -18 17 -9 -4 -20 -1 -25 6 -14 23 -8 38 16 38 21 0 24 5 29 60 4 33 4 87 0
120 l-6 60 -38 0 c-39 0 -39 0 -39 -40 l0 -40 -40 0 -40 0 0 -40 0 -40 40 0
40 0 0 -116 c0 -68 4 -113 9 -109 5 3 12 1 16 -5 3 -5 -1 -10 -9 -10 -12 0
-16 -10 -16 -41 0 -32 3 -40 18 -38 55 5 62 1 62 -41 l0 -40 41 0 42 0 -6 55
c-5 53 6 85 16 46 4 -17 15 -19 81 -19 63 -1 81 3 97 19 36 36 49 25 49 -41
l0 -60 40 0 40 0 0 -120 c0 -113 -1 -120 -20 -120 -19 0 -20 -7 -20 -160 0
-100 -4 -160 -10 -160 -13 0 -1 -232 12 -241 5 -3 8 -23 8 -45 -1 -21 1 -74 6
-116 6 -67 5 -78 -8 -78 -13 0 -16 19 -16 117 -1 72 -5 119 -12 121 -5 2 -11
39 -12 85 -1 67 -2 74 -7 37 -5 -39 -8 -28 -20 78 -13 118 -30 162 -32 85 -1
-39 -3 -38 -13 10 -4 15 -12 27 -19 27 -6 0 -22 16 -35 35 -24 37 -42 45 -42
19 0 -12 -6 -15 -20 -10 -11 3 -29 9 -40 12 -17 5 -20 2 -20 -25 0 -17 5 -31
11 -31 5 0 7 -5 3 -12 -6 -9 -9 -9 -12 0 -2 7 -12 12 -23 12 -15 0 -19 -7 -19
-39 0 -22 5 -41 12 -43 9 -3 9 -27 1 -99 -14 -115 -3 -413 15 -431 7 -7 12
-25 12 -40 0 -29 9 -35 26 -19 5 5 19 5 34 -2 23 -9 23 -10 5 -14 -11 -3 -24
-9 -30 -15 -7 -6 0 -7 18 -3 17 5 27 3 27 -4 0 -6 17 -11 40 -11 22 0 40 5 40
10 0 6 -17 10 -37 10 -28 0 -34 3 -23 10 24 16 54 11 68 -10 15 -25 41 -26 40
-2 0 9 9 40 21 67 l23 50 13 -25 c7 -14 9 -26 4 -28 -5 -2 -9 -21 -9 -43 0
-21 -4 -39 -10 -39 -6 0 -10 -33 -10 -80 0 -73 2 -80 20 -80 17 0 20 -7 20
-40 0 -33 3 -40 20 -40 17 0 20 -7 20 -39 0 -22 3 -42 8 -44 4 -3 6 69 4 160
-2 134 0 172 13 198 20 43 20 85 0 85 -8 0 -15 9 -15 19 0 11 -5 21 -11 23 -8
3 -10 24 -5 71 8 67 26 94 26 37 0 -20 5 -30 15 -30 13 0 15 -28 13 -197 -1
-109 -3 -181 -5 -160 -2 20 -8 37 -14 37 -11 0 -11 -17 -2 -101 8 -63 8 -63
14 -24 5 28 6 23 3 -19 -2 -32 -4 -108 -4 -168 0 -70 -4 -107 -10 -103 -5 3
-10 37 -10 76 0 45 -4 69 -11 69 -9 0 -10 -29 -5 -105 l7 -105 -46 0 -45 0 0
-40 0 -40 45 0 45 0 2 -42 1 -43 7 45 c6 41 7 39 8 -28 1 -40 6 -80 11 -90 5
-9 13 -30 18 -47 5 -16 14 -29 20 -28 6 1 9 -6 6 -18 -4 -12 0 -25 8 -30 12
-8 12 -10 -1 -18 -24 -16 -5 -23 67 -24 37 -1 53 -3 36 -5 l-33 -3 0 -75 0
-74 80 0 80 0 0 80 0 80 -29 0 c-17 0 -33 5 -36 10 -3 5 -1 10 6 10 19 0 4 10
-22 15 -13 3 -48 6 -77 9 -59 4 -82 15 -36 17 66 2 104 16 97 35 -7 18 39 19
68 2 17 -10 23 -10 26 0 7 18 83 16 83 -3 0 -11 -11 -15 -40 -15 -22 0 -40 -5
-40 -11 0 -5 5 -7 10 -4 6 3 10 0 10 -7 0 -9 3 -9 10 2 9 13 10 13 10 0 0 -13
1 -13 10 0 8 13 10 13 10 1 0 -11 3 -10 13 3 11 15 29 19 88 21 41 1 57 0 37
-2 -36 -4 -38 -6 -38 -38 0 -33 -1 -34 -42 -37 -24 -2 67 -3 202 -4 135 -1
225 2 200 6 -25 3 100 5 278 3 189 -2 322 0 322 6 0 16 -156 23 -321 16 -105
-5 -159 -4 -159 3 0 5 36 13 80 17 58 5 80 11 80 21 0 11 24 14 123 12 67 -1
103 -3 80 -5 -28 -3 -43 -9 -43 -18 0 -10 21 -14 80 -17 70 -3 80 -1 80 14 0
9 -10 19 -22 21 -13 3 42 4 122 3 l145 -2 2 -35 c2 -30 1 -31 -7 -11 -9 22
-40 31 -40 12 0 -5 -9 -10 -20 -10 -13 0 -20 7 -20 20 0 18 -7 20 -60 20 l-60
0 0 -40 0 -41 115 2 c116 1 120 3 116 39 -2 13 -1 13 8 0 6 -8 11 -27 11 -42
0 -15 8 -31 17 -36 13 -8 17 -27 17 -105 1 -53 4 -87 8 -76 9 23 28 26 28 4 0
-9 8 -19 18 -22 25 -10 46 -43 52 -83 3 -24 12 -38 27 -45 14 -6 23 -18 23
-32 0 -22 4 -23 80 -23 l80 0 0 -30 0 -30 80 0 80 0 0 54 c0 76 -16 116 -47
116 -13 0 -22 -3 -20 -7 3 -5 1 -17 -4 -28 -7 -18 -8 -17 -8 7 -1 17 -8 29
-21 33 -31 10 -40 -2 -40 -51 0 -46 -9 -54 -31 -28 -12 14 -14 14 -25 0 -10
-14 -14 -14 -35 5 -16 14 -20 23 -12 26 7 2 28 15 48 29 20 13 40 24 45 24 6
0 10 9 10 20 0 11 -7 20 -15 20 -17 0 -17 2 -9 23 5 13 9 13 35 0 17 -8 35
-26 41 -39 6 -13 18 -24 27 -24 14 1 13 2 -1 11 -10 5 -18 14 -18 19 0 15 27
12 33 -4 6 -15 62 -46 82 -46 7 0 15 9 18 20 7 26 33 26 47 0 9 -16 8 -20 -5
-20 -8 0 -15 -9 -15 -20 0 -17 7 -20 40 -20 33 0 40 3 40 20 0 18 7 20 83 21
84 2 123 2 145 0 7 -1 12 -16 12 -41 l0 -40 40 0 c40 0 40 0 40 39 0 22 -5 41
-12 43 -7 3 10 8 37 11 31 5 51 3 53 -3 6 -16 42 -12 42 5 0 16 42 30 65 21
18 -6 85 24 83 39 -3 48 10 57 42 25 15 -15 36 -20 97 -22 l77 -3 9 -38 c7
-27 14 -37 28 -37 23 0 23 1 5 45 -8 19 -20 35 -27 35 -7 0 -10 3 -6 6 12 12
47 -8 47 -27 0 -14 7 -19 30 -19 20 0 30 -5 30 -15 0 -18 45 -21 56 -4 6 11
-47 62 -95 89 -14 8 -38 28 -53 43 -15 15 -34 27 -42 27 -8 0 -25 12 -38 28
-31 36 -52 38 -72 8 -11 -18 -22 -23 -38 -20 -13 3 -34 8 -48 11 -13 4 -31 12
-38 20 -7 7 -22 13 -33 13 -25 0 -60 18 -76 39 -7 9 -29 49 -49 90 -19 41 -50
95 -67 120 -17 25 -33 48 -34 50 -1 1 -6 0 -12 -3 -21 -14 111 -257 175 -320
29 -30 44 -53 44 -70 0 -14 -4 -26 -9 -26 -13 0 -49 35 -95 95 -49 63 -118
135 -128 135 -19 0 -5 -33 32 -71 48 -50 51 -76 13 -85 -16 -3 -48 -13 -73
-21 -30 -10 -98 -17 -205 -20 -113 -4 -166 -9 -182 -19 -32 -20 -45 -18 -112
22 -36 22 -67 33 -78 30 -10 -3 -31 -27 -47 -53 -49 -80 -56 -86 -77 -67 -23
20 -102 209 -141 334 -144 465 -175 757 -145 1365 1 29 -2 40 -13 40 -28 0
-51 -126 -50 -288 0 -81 1 -150 1 -155 3 -17 -2 -29 -18 -48 -10 -10 -36 -42
-57 -69 -62 -80 -151 -152 -213 -173 -27 -9 -31 -8 -26 5 4 9 26 37 50 62 23
25 46 55 49 66 4 11 14 31 23 45 31 48 87 308 100 475 7 83 50 322 112 615 68
325 147 567 270 826 22 45 39 87 39 93 0 12 17 45 36 71 6 8 20 38 30 65 10
28 26 64 36 80 10 17 31 57 48 90 16 33 54 98 85 144 30 46 55 90 55 98 0 7 5
13 10 13 6 0 10 7 10 15 0 8 3 15 8 15 4 0 16 17 27 38 10 20 27 48 36 62 9
14 27 43 39 65 49 88 293 370 385 444 17 14 65 57 108 97 75 70 227 182 311
229 85 47 172 91 206 104 19 8 49 20 65 26 73 30 122 43 270 71 183 34 520
-13 576 -80 16 -19 18 -19 60 26 64 68 187 115 375 143 200 30 342 14 644 -73
119 -35 152 -48 265 -104 100 -50 123 -71 127 -116 2 -30 10 -41 47 -66 42
-28 44 -28 57 -11 8 10 14 25 14 32 0 7 4 13 8 13 11 0 143 -91 202 -139 25
-20 54 -43 64 -51 98 -77 322 -297 436 -430 36 -41 67 -77 70 -80 3 -3 25 -32
50 -65 25 -33 50 -66 57 -75 78 -101 137 -190 183 -279 18 -34 36 -64 41 -67
5 -3 9 -12 9 -20 0 -8 8 -23 18 -34 9 -10 41 -66 71 -124 29 -59 57 -109 62
-112 5 -3 10 -22 10 -42 1 -22 3 -29 6 -17 4 15 14 3 39 -49 19 -37 34 -78 34
-91 0 -13 7 -25 14 -28 8 -3 20 -24 26 -46 6 -23 15 -41 19 -41 5 0 11 -15 14
-32 5 -30 66 -169 101 -228 13 -22 65 -175 86 -255 38 -138 63 -236 70 -270 4
-22 15 -71 23 -110 8 -38 23 -122 32 -185 9 -63 21 -144 27 -180 7 -38 11
-178 11 -340 -1 -363 -26 -541 -115 -820 -29 -89 -56 -146 -65 -136 -2 2 1 39
7 83 19 132 28 381 19 518 -14 200 -66 471 -94 495 -20 17 -48 0 -41 -24 26
-92 57 -276 54 -315 -5 -50 -35 -175 -49 -203 -5 -10 -9 -25 -9 -34 0 -8 -12
-46 -26 -82 -14 -37 -35 -92 -47 -122 -12 -30 -27 -62 -34 -71 -7 -8 -13 -19
-13 -24 0 -4 -14 -37 -30 -72 -16 -34 -30 -68 -30 -74 0 -21 -73 -129 -87
-129 -16 0 -11 65 13 163 19 81 18 102 -10 134 -32 36 -52 25 -73 -37 -8 -25
-32 -81 -52 -125 -21 -44 -41 -91 -45 -105 -9 -37 -26 -55 -85 -90 -75 -44
-87 -36 -55 37 25 56 33 79 67 188 17 53 57 249 77 375 6 41 16 97 21 123 5
26 9 65 9 86 0 44 10 55 98 109 91 56 173 181 213 328 18 64 21 97 17 184 -6
124 -28 181 -91 235 -48 41 -95 52 -154 37 -23 -7 -48 -13 -55 -14 -9 -2 -16
16 -21 57 -53 384 -90 553 -197 891 -6 17 -10 38 -10 47 0 23 -46 23 -58 0
-11 -18 -2 -59 28 -138 11 -27 35 -108 55 -180 19 -71 40 -146 45 -165 23 -81
54 -278 80 -505 28 -248 36 -700 14 -737 -3 -5 -10 -57 -14 -116 -9 -123 -32
-273 -61 -405 -12 -51 -25 -110 -29 -132 -22 -102 -84 -283 -120 -347 -22 -38
-40 -74 -40 -79 0 -5 -4 -9 -8 -9 -5 0 -14 -11 -20 -25 -22 -48 -30 -25 -25
78 5 103 -12 198 -32 187 -6 -3 -8 -39 -7 -81 l4 -77 -69 -25 c-179 -67 -373
-106 -573 -114 -80 -3 -171 -3 -203 1 -86 11 -82 24 68 180 24 26 69 99 113
187 50 101 81 150 100 162 54 34 112 97 88 97 -3 0 -39 -24 -81 -54 -99 -72
-182 -119 -195 -111 -16 10 -12 24 24 84 50 81 102 215 132 333 23 93 32 133
64 293 25 126 59 449 74 717 11 186 11 252 1 365 -7 76 -18 201 -25 278 -6 77
-15 160 -20 185 -5 25 -16 94 -25 154 -9 60 -18 113 -21 118 -3 4 -14 8 -25 8
-24 0 -25 -25 -5 -141 28 -164 62 -433 71 -561 5 -81 0 -108 -19 -108 -19 0
-150 56 -222 96 -87 47 -340 212 -413 269 -126 97 -298 283 -287 311 9 24 118
8 190 -27 63 -31 87 -27 67 10 -29 54 -165 85 -311 70 -52 -5 -111 -15 -130
-22 -63 -22 -120 -60 -120 -79 0 -24 9 -23 67 7 26 13 69 30 96 37 55 14 63 9
89 -57 78 -200 151 -358 192 -418 38 -56 35 -72 -18 -86 -55 -13 -264 -14
-366 -1 -66 9 -78 8 -99 -8 -14 -10 -29 -32 -35 -50 -18 -53 -29 -57 -83 -37
-26 10 -74 38 -106 61 -33 24 -63 41 -69 38 -11 -7 -4 -44 25 -137 18 -59 19
-69 7 -78 -8 -5 -25 -7 -38 -4 -13 3 -62 13 -110 21 -48 9 -107 19 -132 24
-25 4 -114 22 -198 40 -84 17 -160 29 -168 26 -8 -3 -18 -16 -23 -29 -5 -12
-16 -29 -24 -36 -34 -27 -62 11 -139 189 -33 75 -77 228 -83 292 -4 37 -13 72
-20 78 -29 24 -95 -36 -95 -85 0 -19 -29 -65 -41 -65 -18 0 -72 300 -67 371 3
41 5 44 35 47 38 4 109 -19 167 -53 49 -28 76 -22 56 15 -18 33 -128 80 -207
88 -37 4 -67 9 -66 12 0 3 3 25 6 50 23 195 31 253 43 305 13 61 30 116 45
147 5 10 9 26 9 36 0 10 11 51 25 92 14 41 27 84 30 95 2 11 8 43 13 70 7 42
65 196 117 313 8 17 21 47 29 65 8 17 33 72 55 121 45 98 47 106 28 106 -27 0
-121 -133 -143 -202 -3 -13 -19 -51 -35 -85 -16 -34 -44 -106 -64 -160 -34
-92 -53 -138 -74 -173 -22 -38 -78 -230 -86 -295 -2 -16 -7 -72 -10 -124 -3
-51 -10 -112 -15 -135 -5 -22 -10 -68 -10 -101 0 -43 -7 -71 -23 -99 -21 -38
-26 -40 -102 -57 -85 -18 -160 -51 -168 -74 -12 -30 18 -33 74 -6 21 11 58 22
82 26 23 4 49 11 58 15 8 5 22 4 30 -1 7 -5 9 -9 4 -9 -19 0 -203 -128 -245
-170 -8 -8 -143 -125 -168 -146 -36 -29 -179 -197 -261 -306 -41 -54 -78 -98
-82 -98 -17 0 -9 92 26 282 45 248 61 325 86 418 47 175 51 192 41 202 -29 29
-72 -38 -72 -112 0 -26 -3 -50 -7 -54 -4 -3 -8 -16 -10 -28 -2 -12 -10 -47
-18 -77 -14 -53 -52 -266 -80 -451 -36 -231 -43 -507 -24 -952 7 -185 14 -246
35 -335 14 -59 29 -160 34 -224 17 -213 50 -276 253 -481 42 -43 82 -78 88
-78 6 0 25 -11 42 -24 18 -14 43 -29 57 -35 14 -6 34 -16 45 -23 11 -7 36 -22
55 -34 19 -12 62 -32 95 -44 33 -13 89 -36 124 -52 118 -55 302 -108 427 -122
40 -5 54 -3 64 10 17 19 -1 34 -42 34 -70 0 -419 91 -488 127 -14 7 -31 13
-38 13 -7 0 -20 4 -30 9 -30 16 -112 51 -119 51 -9 0 -82 50 -108 75 -25 24
-54 48 -115 95 -158 122 -228 207 -254 307 -18 68 -20 225 -6 343 28 224 20
328 -45 585 -33 128 -58 272 -50 286 3 3 7 34 9 67 6 75 37 136 151 292 97
133 185 233 305 346 126 118 327 274 353 274 10 0 18 -23 26 -77 36 -225 84
-378 121 -378 9 0 22 24 35 67 42 134 64 144 85 40 7 -31 16 -65 21 -74 5 -10
9 -24 9 -31 0 -21 78 -216 111 -275 55 -101 105 -120 135 -52 19 44 45 58 78
42 24 -11 187 -49 296 -68 41 -7 118 -22 170 -33 101 -22 145 -18 164 11 7 12
7 24 -2 40 -43 85 -34 110 30 81 85 -40 147 -56 163 -43 9 7 14 18 13 24 -4
24 15 77 31 86 11 5 56 5 122 -2 139 -14 356 -5 398 16 36 19 39 34 12 67 -69
88 -188 347 -173 376 7 12 18 4 58 -41 58 -66 193 -184 284 -248 128 -90 479
-297 505 -298 6 -1 23 -12 40 -25 25 -21 31 -33 35 -82 7 -80 -3 -230 -16
-243 -7 -7 -31 0 -80 23 -115 55 -193 80 -389 122 -161 35 -454 47 -530 22
-28 -9 -75 -21 -105 -27 -85 -16 -194 -96 -184 -135 4 -15 -3 -29 -20 -46 -14
-13 -26 -27 -26 -30 0 -3 42 0 93 8 50 8 110 12 132 11 34 -3 41 -7 43 -27 2
-13 -1 -33 -7 -45 -12 -25 -19 -156 -8 -156 4 0 7 22 7 49 0 27 9 78 20 114
l20 66 188 -5 c253 -7 357 -17 489 -50 129 -31 127 -28 122 -157 -1 -40 2 -85
6 -101 8 -28 -11 -111 -36 -158 -5 -10 -9 -22 -9 -28 0 -6 -5 -16 -10 -23 -6
-7 -29 -37 -53 -68 -56 -73 -98 -110 -177 -150 -62 -32 -70 -34 -170 -34 -96
0 -110 2 -160 29 -30 15 -66 38 -79 50 -54 48 -131 172 -131 209 0 9 -4 19
-10 22 -5 3 -8 37 -5 80 3 49 0 87 -10 112 l-14 38 0 -79 c-2 -211 94 -379
266 -461 63 -31 81 -35 152 -35 44 0 83 5 86 10 3 6 13 10 22 10 8 0 43 14 78
31 107 52 189 154 259 321 14 35 42 204 48 293 3 33 7 41 26 43 12 2 38 -6 58
-19 26 -16 38 -19 47 -10 6 6 19 11 29 11 15 0 18 -8 18 -47 0 -25 -4 -74 -9
-107 -5 -34 -14 -99 -20 -146 -6 -47 -13 -101 -16 -120 -2 -19 -11 -66 -20
-105 -9 -38 -20 -90 -25 -115 -13 -68 -59 -219 -78 -257 -5 -10 -25 -52 -43
-92 -19 -41 -53 -103 -76 -137 -23 -34 -39 -64 -36 -68 16 -15 86 1 103 24 3
4 17 10 32 13 21 6 28 3 33 -12 8 -26 -28 -94 -62 -119 -28 -19 -237 -122
-249 -122 -3 0 -20 -6 -37 -13 -18 -8 -72 -26 -122 -42 -49 -15 -105 -34 -123
-42 -18 -8 -60 -19 -95 -24 -34 -6 -71 -14 -82 -19 -11 -5 -33 -11 -50 -13
-16 -2 -4 -5 27 -6 31 0 60 4 63 9 3 6 21 10 39 10 18 0 59 9 92 19 32 11 91
27 129 36 39 10 93 26 120 37 65 26 165 68 187 79 64 33 47 -11 -34 -85 -58
-53 -69 -68 -59 -79 18 -23 -11 -42 -38 -26 -17 11 -27 9 -68 -13 -55 -30
-247 -98 -276 -98 -16 0 -18 5 -14 28 14 68 14 67 -18 66 -36 -2 -136 -39
-185 -70 -20 -12 -50 -25 -68 -28 -28 -7 -33 -5 -44 21 -7 15 -13 30 -15 32
-2 3 -23 4 -47 2 -25 -1 -47 3 -51 9 -13 22 -35 10 -35 -20 0 -16 -4 -39 -9
-52 -5 -13 -12 -35 -15 -49 -4 -20 -20 -32 -73 -57 -37 -17 -80 -34 -96 -38
-15 -3 -30 -10 -33 -15 -3 -5 -18 -9 -33 -9 -15 0 -32 -5 -37 -10 -6 -6 -37
-11 -71 -12 -50 -1 -64 2 -84 21 -13 13 -47 38 -75 56 -62 40 -72 54 -51 69
16 13 20 26 18 65 -1 15 -6 21 -15 18 -7 -3 -17 -2 -22 3 -5 5 -39 12 -76 16
-57 6 -68 4 -68 -9 0 -16 -20 -27 -50 -27 -9 0 -23 -7 -30 -15 -20 -24 -70
-18 -101 11 -16 15 -43 28 -67 31 -34 4 -42 2 -51 -16 -20 -37 -41 -40 -131
-22 -47 10 -99 25 -117 34 -42 22 -40 23 -57 -18 -8 -19 -26 -40 -40 -47 -31
-14 -34 -38 -6 -56 26 -16 26 -32 0 -32 -17 0 -20 -7 -20 -40 l0 -40 80 0 c64
0 80 3 80 15 0 8 8 15 19 15 10 0 46 3 80 6 58 7 61 6 61 -15 0 -20 4 -21 99
-21 l100 0 -1 -30 c-1 -16 -5 -30 -10 -30 -5 0 -6 4 -3 10 3 5 2 10 -4 10 -17
0 -23 -20 -10 -36 6 -8 10 -15 8 -17 -2 -1 -13 -7 -24 -13 -11 -6 -24 -20 -30
-32 -5 -12 -16 -22 -23 -22 -8 0 -16 -9 -19 -20 -3 -11 -10 -20 -15 -20 -5 0
-21 -9 -35 -20 -21 -16 -41 -20 -109 -20 l-84 0 0 -42 c0 -24 -7 -52 -15 -62
-8 -11 -15 -28 -15 -38 0 -11 -7 -18 -19 -18 -10 0 -18 6 -17 14 0 8 -2 15 -6
15 -28 3 -37 -1 -42 -15 -5 -13 -2 -15 13 -11 21 5 34 -14 25 -36 -8 -21 -64
-9 -64 14 0 11 -5 19 -11 19 -6 0 -10 -16 -9 -37 4 -73 3 -73 -40 -73 -29 0
-40 4 -40 15 0 11 -11 15 -40 15 l-40 0 2 -87 c1 -53 3 -69 5 -40 3 34 8 47
20 47 12 0 14 -9 11 -40 -2 -22 0 -40 4 -40 4 0 -4 -12 -17 -26 -27 -29 -35
-89 -13 -96 8 -3 4 -12 -9 -25 -12 -12 -24 -31 -28 -44 -7 -22 -8 -22 -22 -3
-14 18 -14 17 -8 -13 3 -18 2 -34 -4 -38 -6 -3 -11 2 -11 12 0 13 -2 15 -9 5
-4 -7 -6 -24 -3 -38 2 -14 0 -24 -7 -24 -6 0 -17 -11 -23 -25 -6 -14 -15 -25
-20 -25 -5 0 -7 4 -4 9 3 5 -1 11 -9 15 -9 3 -15 18 -14 38 0 31 1 32 11 11
19 -39 28 -25 28 42 0 58 -2 65 -20 65 -17 0 -20 -7 -20 -40 0 -29 -4 -40 -15
-40 -11 0 -15 -12 -15 -50 0 -27 -4 -50 -10 -50 -5 0 -10 5 -10 10 0 6 -7 10
-15 10 -8 0 -15 -4 -15 -10 0 -11 -43 -14 -54 -3 -4 4 -75 8 -159 9 -356 3
-347 2 -347 24 0 17 -7 20 -40 20 -33 0 -40 -3 -40 -19 0 -11 4 -21 10 -23 5
-2 -66 -3 -158 -2 -92 1 -384 2 -649 3 l-483 1 0 40 0 40 -40 0 -40 0 0 -40 0
-40 -800 0 -800 0 0 80 0 80 -80 0 -80 0 0 -80 0 -80 -137 0 c-75 0 -134 3
-130 6 6 6 -37 54 -48 54 -11 0 -4 -49 8 -53 7 -3 5 -6 -5 -6 -17 -1 -18 16
-16 237 2 232 2 234 8 82 l6 -155 2 212 c1 117 -3 257 -9 311 -7 58 -9 136 -4
186 6 75 9 86 26 86 17 0 19 8 19 80 0 73 -2 80 -19 80 -15 0 -21 9 -24 37 -3
21 -3 -15 -1 -80 2 -73 0 -117 -6 -117 -6 0 -10 -61 -10 -160 0 -88 -4 -160
-8 -160 -5 0 -9 270 -9 600 -1 345 3 600 8 600 5 0 10 -84 10 -187 1 -104 4
-231 8 -283 3 -52 5 276 4 730 -1 488 -6 853 -12 894 -11 73 -4 148 9 111 9
-23 3 82 -10 210 -11 95 -20 307 -20 444 0 53 -4 81 -11 81 -8 0 -10 -46 -6
-157 2 -87 2 -120 -2 -73 -3 47 -2 621 2 1275 10 1405 10 1349 -3 1353 -6 2
-9 65 -8 165 l1 162 10 -162 c5 -90 14 -163 18 -163 5 0 9 72 9 160 0 100 4
160 10 160 6 0 11 -62 12 -162 1 -90 4 -126 5 -80 2 46 8 82 14 82 6 0 9 32 7
83 -3 81 -3 82 -31 85 -32 4 -36 18 -7 27 11 3 20 10 20 15 0 13 43 20 57 8 7
-6 13 -7 13 -2 0 11 20 -18 20 -28 0 -5 -7 -8 -15 -8 -20 0 -27 -33 -22 -115
l3 -70 2 83 c1 47 6 82 12 82 6 0 10 -9 10 -20 0 -17 7 -20 40 -20 l40 0 0
-140 c0 -87 4 -140 10 -140 6 0 10 60 10 160 0 153 1 160 20 160 19 0 20 -7
20 -160 l0 -160 30 0 30 0 0 160 c0 159 0 160 23 161 34 1 218 -2 252 -5 17
-1 33 2 37 8 5 7 8 7 8 -2 0 -7 11 -2 27 13 15 14 35 25 43 25 8 1 26 7 40 15
24 13 23 14 -21 12 -26 -1 -45 -5 -42 -9 2 -5 -16 -8 -41 -8 -25 0 -46 5 -46
10 0 6 -12 9 -27 9 -16 -1 -35 0 -43 1 -8 2 23 6 70 10 102 6 234 0 238 -11z
m-285 -56 c-7 -2 -19 -2 -25 0 -7 3 -2 5 12 5 14 0 19 -2 13 -5z m646 -501
c-3 -280 -6 -327 -17 -315 -11 10 -13 30 -8 76 3 34 7 176 8 315 1 141 6 252
11 252 5 0 7 -138 6 -328z m-37 -91 c-3 -52 -8 -68 -14 -57 -6 10 -6 78 -1
169 l8 152 6 -95 c4 -52 4 -128 1 -169z m-27 20 c0 -44 -3 -77 -7 -74 -15 8
-9 153 6 153 1 0 1 -36 1 -79z m-515 -35 c0 -19 -4 -38 -10 -41 -5 -3 -10 0
-10 7 0 9 -3 9 -10 -2 -8 -12 -10 -9 -10 12 0 36 10 58 26 58 9 0 14 -12 14
-34z m45 -131 c7 -76 2 -125 -10 -113 -9 9 -15 198 -6 198 5 0 12 -38 16 -85z
m417 45 c-2 -22 -6 -40 -8 -40 -2 0 -4 18 -4 40 0 22 3 40 8 40 4 0 6 -18 4
-40z m-463 -52 c-1 -46 -4 -96 -8 -113 l-7 -30 -13 23 c-8 15 -11 44 -8 80 13
140 38 167 36 40z m425 -3 c-4 -8 -8 -15 -10 -15 -2 0 -4 7 -4 15 0 8 4 15 10
15 5 0 7 -7 4 -15z m-126 -313 c6 -18 -15 -14 -22 4 -4 10 -1 14 6 12 6 -2 14
-10 16 -16z m291 -42 c4 -3 4 -48 1 -100 l-7 -95 -1 83 c-1 47 -6 82 -12 82
-12 0 -13 40 -3 67 7 16 8 15 11 -7 2 -14 7 -27 11 -30z m-32 -312 c-2 -24 -4
-5 -4 42 0 47 2 66 4 43 2 -24 2 -62 0 -85z m42 -160 c-1 -138 -4 -187 -9
-153 -12 76 -12 355 0 355 6 0 10 -73 9 -202z m-42 -160 c-2 -24 -4 -5 -4 42
0 47 2 66 4 43 2 -24 2 -62 0 -85z m39 -1025 c5 -525 3 -746 -5 -759 -8 -14
-10 22 -11 144 0 101 -4 162 -10 162 -6 0 -10 -33 -10 -80 0 -44 -3 -80 -7
-80 -5 0 -7 108 -5 240 3 236 2 240 -18 240 -17 0 -20 6 -20 40 0 33 -3 40
-20 40 -11 0 -20 3 -20 8 0 14 29 97 29 85 2 -28 21 -11 28 25 l7 37 7 -40 6
-40 2 43 c0 23 5 42 11 42 5 0 11 -52 13 -122 1 -68 3 -31 3 82 0 113 -1 186
-3 163 -2 -24 -8 -43 -14 -43 -5 0 -10 19 -11 43 l-1 42 -7 -45 c-5 -30 -7 -3
-7 80 0 69 2 106 4 83 5 -54 23 -56 23 -3 0 22 5 40 10 40 6 0 10 61 10 162 0
89 2 159 5 156 3 -3 8 -338 11 -745z m-460 189 c-12 -11 -17 7 -9 34 l8 29 3
-28 c2 -16 1 -31 -2 -35z m-16 -178 c0 -8 -4 -12 -10 -9 -5 3 -10 10 -10 16 0
5 5 9 10 9 6 0 10 -7 10 -16z m24 -49 c3 -8 1 -15 -4 -15 -6 0 -10 7 -10 15 0
8 2 15 4 15 2 0 6 -7 10 -15z m56 -18 c0 -18 -2 -19 -10 -7 -13 20 -13 43 0
35 6 -3 10 -16 10 -28z m-833 -459 c-2 -13 -4 -3 -4 22 0 25 2 35 4 23 2 -13
2 -33 0 -45z m9408 -233 c253 -3 485 -8 515 -11 52 -6 54 -7 30 -19 -21 -11
-177 -79 -350 -152 -19 -8 -51 -22 -70 -30 -19 -8 -82 -35 -140 -60 -58 -24
-118 -50 -135 -58 -16 -7 -79 -34 -140 -60 -60 -26 -128 -55 -150 -65 -79 -35
-82 -35 -89 7 -3 21 -10 94 -16 163 -6 69 -15 160 -21 203 -5 42 -7 82 -3 88
4 7 25 9 58 5 28 -3 258 -8 511 -11z m-1115 -10 c43 -22 82 -110 87 -198 5
-81 -14 -190 -46 -259 -41 -90 -152 -218 -189 -218 -9 0 -12 63 -12 233 0 127
-3 275 -6 328 l-7 97 29 16 c37 20 107 20 144 1z m-7091 -98 l-2 -82 -11 80
c-12 82 -11 99 5 90 5 -4 8 -43 8 -88z m-1202 21 c-2 -13 -4 -3 -4 22 0 25 2
35 4 23 2 -13 2 -33 0 -45z m1160 0 c-2 -13 -4 -3 -4 22 0 25 2 35 4 23 2 -13
2 -33 0 -45z m9094 -113 c-8 -35 -9 -27 -10 56 -1 53 2 99 7 103 11 12 14
-114 3 -159z m-22 27 l0 -97 -15 50 c-18 60 -18 61 -9 103 8 33 7 34 -14 21
-11 -8 -21 -17 -21 -21 0 -11 -62 -38 -89 -38 -14 0 -33 -5 -41 -11 -13 -9
-12 -10 2 -5 10 3 20 1 23 -4 4 -6 1 -10 -4 -10 -6 0 -11 -18 -11 -40 l0 -40
49 0 50 0 4 -37 c2 -21 4 -3 5 40 2 62 -1 77 -13 77 -20 0 -19 16 0 24 9 3 18
-1 21 -9 4 -8 12 -15 19 -15 8 0 14 -21 18 -56 3 -31 11 -62 16 -67 8 -8 11
-209 13 -626 0 -339 4 -596 8 -571 l7 45 1 -54 c2 -42 -1 -52 -12 -48 -8 3
-16 -2 -19 -14 -4 -14 -14 -19 -39 -19 -30 1 -31 2 -13 12 42 25 42 26 40 233
l-2 200 6 -160 c5 -108 7 -6 8 315 1 272 -2 466 -7 455 -6 -14 -9 -15 -10 -5
-1 8 -6 3 -12 -12 -13 -37 -24 -35 -32 3 -14 70 2 165 18 107 5 -19 8 -20 16
-8 9 13 11 13 21 0 8 -11 9 -7 5 19 -3 18 -6 45 -6 60 0 18 -3 22 -9 12 -6
-10 -10 -10 -16 -1 -9 14 -40 -16 -48 -46 -4 -17 -5 -17 -6 2 0 12 -12 33 -26
48 -14 15 -25 31 -25 36 0 15 -22 23 -30 10 -4 -7 -16 -9 -29 -5 -25 8 -18 25
10 25 10 0 19 5 19 10 0 13 -73 2 -78 -11 -2 -5 -21 -9 -43 -9 -32 0 -39 -3
-39 -20 0 -15 -7 -20 -25 -20 -14 0 -25 -4 -25 -9 0 -5 -7 -17 -16 -25 -13
-14 -14 -16 0 -16 21 0 31 -21 15 -30 -10 -7 -13 -42 -13 -142 -1 -110 2 -139
18 -170 10 -21 23 -38 29 -38 5 0 29 -12 53 -27 39 -25 44 -32 44 -65 0 -38 0
-38 40 -38 39 0 40 1 40 36 0 40 19 64 50 64 12 0 18 4 15 10 -9 15 5 74 16
63 4 -4 6 -188 2 -411 -6 -381 -7 -402 -25 -402 -15 0 -18 -8 -18 -50 0 -27
-1 -50 -3 -50 -1 0 -16 -4 -34 -9 -24 -7 -31 -6 -27 3 7 19 -49 26 -223 26
l-153 0 0 -61 0 -61 43 3 c23 1 49 -1 57 -4 40 -15 43 -17 13 -12 -25 3 -33 1
-33 -11 0 -8 -4 -12 -10 -9 -5 3 -10 1 -10 -6 0 -8 -14 -10 -49 -5 -32 4 -52
3 -56 -4 -4 -6 -13 -9 -21 -6 -8 3 -14 0 -14 -6 0 -7 16 -9 45 -6 60 7 66 -6
10 -22 -25 -7 -48 -17 -51 -21 -3 -5 -18 -9 -33 -9 -15 0 -36 -9 -46 -20 -21
-23 -47 -27 -39 -6 3 9 -4 15 -20 18 -14 3 -26 1 -26 -3 0 -5 -9 -9 -20 -9
-15 0 -20 -7 -20 -25 0 -16 6 -25 16 -25 10 0 14 6 11 15 -4 8 -3 16 1 19 4 2
9 -6 10 -18 1 -21 -4 -24 -58 -30 -33 -4 -60 -11 -60 -16 0 -6 -9 -10 -20 -10
-11 0 -20 -3 -20 -8 0 -4 -36 -6 -80 -4 -56 3 -80 1 -80 -7 0 -9 20 -10 71 -5
52 5 70 4 65 -5 -4 -6 -18 -11 -30 -11 -13 0 -29 -7 -36 -15 -14 -17 -40 -20
-40 -6 0 5 8 12 18 14 9 3 3 5 -15 6 -24 1 -31 -3 -27 -13 3 -8 0 -17 -7 -22
-7 -4 -10 -3 -5 4 10 17 -11 24 -47 16 -17 -4 -26 -9 -18 -12 11 -4 11 -6 0
-13 -12 -8 -11 -11 1 -19 13 -9 13 -11 0 -20 -8 -5 -32 -10 -52 -10 -37 0 -51
-13 -25 -23 7 -4 6 -6 -5 -6 -9 -1 -24 -4 -34 -8 -11 -4 -15 -3 -11 4 12 18
-36 23 -55 6 -10 -9 -16 -18 -14 -21 11 -11 -25 -32 -56 -33 -21 -1 -26 -3
-14 -6 16 -4 12 -8 -17 -18 -39 -13 -77 -10 -77 6 0 6 7 12 15 15 9 4 15 19
15 38 0 28 4 32 29 34 16 1 36 -5 45 -14 9 -8 16 -13 16 -11 0 3 3 12 6 21 5
14 -10 16 -125 16 l-131 0 0 -79 c0 -44 4 -81 9 -83 4 -1 5 -12 0 -23 -6 -17
-8 -17 -8 -2 -1 18 -41 25 -41 7 0 -5 8 -10 17 -10 14 0 14 -3 5 -12 -10 -10
-15 -10 -21 1 -7 10 -12 10 -29 0 -11 -7 -18 -18 -15 -24 6 -16 -27 -29 -41
-15 -5 5 -18 10 -29 10 -10 0 -16 4 -13 8 3 5 -8 6 -25 4 -16 -2 -29 -9 -29
-14 0 -5 -5 -6 -11 -2 -8 4 -3 12 12 20 22 12 22 13 4 14 -11 0 -27 9 -35 20
-8 12 -26 20 -42 20 -21 0 -28 -5 -28 -20 0 -12 7 -20 16 -20 15 0 44 -23 44
-34 0 -3 -13 -6 -30 -6 -28 0 -30 -2 -30 -39 0 -33 -4 -40 -25 -45 -14 -4 -37
-4 -52 -1 l-28 5 27 -13 c26 -12 27 -14 10 -28 -10 -8 -27 -19 -37 -24 -21 -9
-29 -11 -85 -15 -32 -2 -33 -3 -10 -9 22 -7 19 -10 -31 -25 -31 -9 -64 -23
-75 -31 -10 -8 -30 -15 -44 -15 -14 0 -40 -14 -59 -30 -18 -17 -39 -30 -45
-30 -6 0 -3 7 7 14 20 16 8 30 -17 20 -9 -3 -16 -1 -16 4 0 6 8 12 18 14 9 3
-95 6 -233 7 -137 1 -261 3 -275 3 -44 1 -50 -2 -44 -17 8 -20 -20 -20 -36 0
-16 19 -30 19 -30 0 0 -8 -9 -15 -20 -15 -11 0 -20 4 -20 10 0 5 -3 9 -7 8
-16 -3 -43 15 -43 29 0 8 -8 13 -17 12 -34 -3 -53 1 -53 11 0 6 8 10 19 10 10
0 24 7 31 15 11 13 7 15 -24 15 -25 0 -36 -4 -36 -15 0 -24 -25 -17 -48 14
-13 18 -34 31 -56 35 -20 4 -36 11 -36 17 0 5 -11 15 -25 21 -15 6 -25 20 -26
32 0 20 -1 20 -12 -2 -8 -19 -8 -25 4 -33 19 -12 2 -11 -22 1 -10 6 -19 20
-19 31 0 11 -8 22 -17 25 -10 3 -31 12 -48 20 l-30 14 33 0 c25 0 32 4 32 20
0 17 7 20 40 20 33 0 40 3 40 20 0 15 -7 20 -29 20 -16 0 -32 -6 -35 -12 -5
-10 -7 -10 -12 0 -3 6 -23 12 -45 12 -34 0 -39 -3 -39 -22 0 -17 -3 -19 -12
-10 -18 18 -38 15 -59 -9 -18 -21 -20 -21 -44 -5 -14 9 -25 23 -25 31 0 11 -7
14 -25 9 -21 -5 -25 -3 -25 15 0 12 6 21 15 21 8 0 15 9 15 20 0 24 -15 25
-66 4 -27 -11 -35 -12 -26 -3 6 7 12 26 12 41 0 26 -3 28 -40 28 -22 0 -40 5
-40 10 0 6 -11 3 -24 -5 -22 -14 -24 -14 -30 1 -11 28 11 38 74 36 33 -1 60 1
60 5 0 5 -9 19 -20 33 l-20 25 -20 -25 c-11 -14 -20 -20 -20 -14 0 7 -10 14
-22 17 -18 5 -19 8 -8 21 11 14 8 16 -21 16 -30 -1 -32 -2 -17 -13 15 -12 14
-14 -13 -24 -16 -6 -29 -18 -29 -27 0 -30 -18 -16 -24 19 -4 21 -17 41 -31 51
-14 9 -25 20 -25 24 0 12 39 19 46 9 8 -14 24 0 24 22 0 10 6 19 14 19 9 0 14
-9 13 -24 -1 -14 0 -24 3 -24 3 1 15 -4 26 -10 18 -9 25 -7 45 14 l24 26 5
-29 c5 -25 9 -28 50 -31 36 -2 48 -8 55 -25 6 -14 18 -22 33 -21 15 0 22 -5
22 -18 0 -16 9 -18 75 -18 l75 0 0 40 0 40 40 0 c40 0 40 0 40 38 l0 38 40 -4
40 -4 0 -44 0 -44 40 0 c33 0 40 3 40 20 0 13 -7 20 -20 20 -16 0 -20 7 -20
30 0 24 -4 30 -22 31 -15 0 -17 2 -8 6 8 2 29 11 45 18 21 10 73 13 180 12 83
-1 179 4 215 10 91 17 190 23 190 12 0 -5 -11 -9 -24 -9 -31 0 -42 -15 -18
-26 14 -6 12 -8 -13 -14 -18 -5 18 -8 93 -9 116 -1 122 0 122 19 0 17 -7 20
-40 20 -33 0 -40 3 -40 19 0 18 39 35 66 30 26 -4 35 2 29 21 -8 24 20 27 48
6 24 -18 22 -23 -13 -29 -27 -6 -30 -10 -30 -47 0 -33 3 -40 20 -40 17 0 20 7
20 40 0 22 2 40 5 40 10 0 42 -34 54 -57 10 -19 20 -23 61 -23 48 0 50 1 50
28 0 21 2 24 10 12 7 -12 13 -12 27 -4 24 15 29 44 8 44 -9 0 -14 4 -10 9 3 6
13 9 23 9 30 -1 74 22 79 42 3 11 10 20 17 21 6 0 2 4 -9 9 -11 5 -14 9 -7 9
8 1 26 9 40 19 37 26 72 34 72 16 0 -8 -8 -15 -17 -15 -17 -1 -17 -2 0 -6 9
-2 17 -11 17 -19 0 -10 13 -14 50 -14 28 0 50 5 50 10 0 6 -4 10 -10 10 -5 0
-10 7 -10 16 0 9 5 12 11 8 9 -5 10 1 5 20 -7 29 5 34 24 11 7 -9 29 -15 51
-15 21 0 40 -4 43 -8 3 -5 -19 -7 -49 -4 -44 4 -55 1 -55 -10 0 -12 11 -14 55
-10 52 4 55 3 55 -19 1 -22 2 -23 14 -6 14 18 32 24 21 7 -3 -5 -2 -10 3 -10
5 0 9 14 10 31 1 25 -2 28 -14 18 -11 -9 -14 -8 -14 5 0 9 -4 16 -10 16 -5 0
-7 7 -3 15 3 9 8 13 11 11 7 -8 31 26 32 45 0 9 9 24 20 34 11 10 20 24 20 31
0 21 29 44 47 37 13 -5 15 -2 11 15 -4 12 0 26 8 33 8 6 14 8 14 5 0 -4 7 -1
15 8 8 8 15 19 15 24 0 5 8 16 17 23 11 10 14 10 9 2 -4 -7 -5 -13 -2 -13 3 0
12 12 20 28 l14 27 7 -30 c4 -16 8 -35 10 -42 2 -6 1 -14 -2 -17 -4 -3 -8 -36
-10 -74 -2 -37 -8 -68 -13 -70 -6 -2 -11 -20 -11 -40 -1 -20 -5 -50 -10 -67
-6 -21 -7 -10 -4 38 2 37 2 67 -1 67 -2 0 -10 -12 -16 -27 l-12 -28 -4 28 c-5
37 -25 34 -40 -6 -15 -41 -15 -47 -2 -47 6 0 10 11 10 24 0 14 5 28 10 31 6 4
10 -20 10 -65 l0 -72 -40 4 -40 4 0 -83 0 -83 92 0 c72 0 89 3 80 12 -18 18
-15 68 3 68 8 0 15 7 15 15 0 9 9 15 25 15 25 0 35 15 14 22 -5 2 -8 10 -4 19
4 10 18 14 50 13 l45 -2 0 39 c0 28 4 39 15 39 11 0 15 11 15 40 0 22 -5 40
-11 40 -5 0 -7 4 -4 10 4 6 13 5 25 -2 15 -10 22 -10 32 0 11 11 9 12 -6 6
-14 -5 -17 -4 -11 5 4 8 3 16 -4 20 -11 7 -9 18 30 126 10 28 21 69 24 92 4
24 11 45 16 49 5 3 9 15 10 27 0 12 3 16 6 10 12 -32 20 -7 18 60 -1 55 4 81
19 109 17 34 21 36 32 20 11 -14 12 -6 7 53 -4 48 -2 67 5 60 6 -5 12 -21 14
-35 2 -14 4 24 3 83 0 91 -2 107 -15 104 -13 -3 -15 11 -15 88 0 71 3 89 12
79 7 -6 14 -38 16 -70 l3 -59 2 63 c1 34 6 62 10 62 4 0 7 -17 6 -37 -2 -21 0
-28 2 -15 3 12 10 20 15 17 10 -7 12 6 3 29 -3 9 -15 16 -25 16 -10 0 -19 5
-19 11 0 7 12 9 34 5 22 -4 36 -2 38 5 3 8 32 11 91 10 l87 -2 0 30 c0 17 -4
31 -10 31 -5 0 -10 -4 -10 -8 0 -4 -19 -7 -42 -6 -58 3 -58 3 -58 14 0 6 17
10 38 10 27 0 33 3 22 10 -12 7 -11 10 5 16 11 3 47 19 80 34 33 16 71 30 85
32 14 2 30 10 37 18 7 8 13 12 13 8 0 -4 20 4 44 17 53 29 87 35 62 10 -8 -9
-21 -14 -28 -13 -6 2 -12 -4 -13 -12 0 -8 -10 -16 -22 -18 -13 -2 -23 -10 -23
-18 0 -8 -7 -14 -15 -14 -8 0 -15 -4 -15 -10 0 -5 7 -10 15 -10 8 0 15 5 15
10 0 14 38 12 43 -2 2 -8 8 -9 13 -4 5 5 4 11 -3 13 -7 3 -13 12 -13 20 0 10
6 13 16 9 9 -3 31 -6 50 -6 27 0 34 -4 34 -20 0 -18 7 -20 80 -20 l80 0 0 40
0 40 -42 2 -43 1 43 4 c28 3 42 9 42 19 0 10 12 14 40 14 33 0 40 3 40 20 0
11 7 20 15 20 8 0 15 6 15 13 0 22 -16 38 -33 31 -20 -7 -22 2 -4 20 13 13
102 63 149 83 23 10 26 10 21 -2 -3 -8 -8 -15 -12 -15 -3 -1 -19 -12 -36 -26
-28 -24 -29 -25 -5 -19 13 4 30 14 38 21 15 16 32 10 32 -12 0 -9 11 -14 31
-14 27 0 30 2 19 15 -9 10 -9 15 -1 15 23 0 10 28 -16 35 -26 6 -21 10 52 40
44 18 97 42 118 53 21 12 46 18 54 15 10 -4 14 -2 9 5 -6 10 31 22 47 14 4 -2
7 -47 6 -100z m-10232 -134 c-2 -24 -4 -5 -4 42 0 47 2 66 4 43 2 -24 2 -62 0
-85z m32 -341 c0 -254 -4 -468 -8 -476 -5 -7 -9 201 -9 463 -1 278 3 476 8
476 5 0 9 -193 9 -463z m3680 222 c12 -92 15 -228 5 -253 -10 -25 -33 -19 -40
12 -3 15 -8 34 -11 42 -8 27 -16 368 -8 387 10 25 39 -77 54 -188z m-2552 99
c-2 -13 -4 -3 -4 22 0 25 2 35 4 23 2 -13 2 -33 0 -45z m9104 -18 c13 0 10
-22 -6 -44 -14 -18 -15 -13 -13 55 1 47 3 59 5 32 2 -24 8 -43 14 -43z m-566
30 c-3 -5 -27 -9 -53 -9 -42 1 -44 2 -17 9 45 11 77 11 70 0z m555 -222 c-7
-19 -9 -15 -9 22 0 37 2 41 9 23 6 -14 6 -32 0 -45z m-1256 -62 c-19 -13 -48
-20 -69 -17 -12 2 53 28 75 30 10 1 8 -4 -6 -13z m1191 -45 c4 -32 -1 -37 -23
-22 -10 6 -11 13 -1 34 15 32 18 30 24 -12z m14 -308 c1 -65 -3 -113 -8 -113
-6 0 -11 -19 -13 -42 -2 -24 -3 27 -2 112 0 85 2 178 3 205 l4 50 7 -50 c5
-27 9 -101 9 -162z m48 5 c-2 -24 -4 -5 -4 42 0 47 2 66 4 43 2 -24 2 -62 0
-85z m-10250 10 c-3 -7 -5 -2 -5 12 0 14 2 19 5 13 2 -7 2 -19 0 -25z m8913 2
c0 -16 -4 -30 -10 -30 -5 0 -10 14 -10 30 0 17 5 30 10 30 6 0 10 -13 10 -30z
m-20 -110 c0 -11 -4 -20 -10 -20 -5 0 -10 9 -10 20 0 11 5 20 10 20 6 0 10 -9
10 -20z m-6102 -42 c5 -7 17 -52 26 -99 9 -47 23 -108 31 -135 8 -27 15 -60
15 -72 l0 -24 -267 6 c-148 3 -430 9 -627 12 -378 7 -397 10 -247 44 42 10
171 43 286 74 273 73 268 71 350 94 177 49 401 110 411 111 6 0 16 -5 22 -11z
m5774 -253 c-4 -5 -9 1 -13 15 -6 20 -7 17 -8 -17 -1 -24 -4 -43 -9 -43 -6 0
10 175 18 190 2 3 6 -26 10 -65 4 -38 5 -74 2 -80z m1595 -87 c-2 -24 -4 -5
-4 42 0 47 2 66 4 43 2 -24 2 -62 0 -85z m23 -98 c9 -16 8 -20 -5 -20 -8 0
-15 9 -15 20 0 11 2 20 5 20 2 0 9 -9 15 -20z m-8210 0 c0 -6 49 -10 126 -10
81 0 123 -4 119 -10 -3 -5 -24 -10 -46 -10 -21 0 -39 -4 -39 -8 0 -20 -310
-46 -317 -27 -2 6 41 11 113 11 108 2 135 6 122 20 -4 3 -71 9 -150 13 -78 4
-132 10 -118 11 14 2 -11 7 -55 10 -66 5 -51 7 83 8 102 1 162 -2 162 -8z
m750 -55 c0 -2 -7 -5 -15 -9 -9 -3 -15 0 -15 9 0 9 6 12 15 9 8 -4 15 -7 15
-9z m-1355 -25 c4 -6 -6 -10 -24 -10 -16 0 -33 5 -36 10 -4 6 6 10 24 10 16 0
33 -4 36 -10z m6720 -90 c3 -5 -1 -10 -10 -10 -9 0 -13 5 -10 10 3 6 8 10 10
10 2 0 7 -4 10 -10z m1732 -32 c0 -13 -1 -17 -4 -10 -3 6 -12 12 -21 13 -14 0
-13 2 3 9 11 5 20 9 20 9 1 1 1 -9 2 -21z m-1137 -7 c0 -5 -9 -11 -20 -14 -22
-6 -28 8 -7 16 19 8 27 8 27 -2z m-200 -25 c0 -14 5 -28 10 -31 6 -3 10 -11
10 -17 0 -6 -9 1 -20 15 -21 27 -27 57 -10 57 6 0 10 -11 10 -24z m-4540 -56
c0 -5 -17 -10 -37 -9 -34 1 -35 2 -13 9 36 11 50 11 50 0z m3740 -21 c0 -11
-4 -17 -10 -14 -5 3 -10 13 -10 21 0 8 5 14 10 14 6 0 10 -9 10 -21z m205 11
c-3 -5 -13 -10 -21 -10 -8 0 -12 5 -9 10 3 6 13 10 21 10 8 0 12 -4 9 -10z
m-3915 -31 c0 -13 -6 -20 -17 -18 -10 1 -20 0 -23 -1 -19 -7 -41 -7 -45 0 -3
5 -12 7 -19 4 -8 -3 -17 -1 -21 5 -4 7 3 11 17 11 13 0 30 5 38 10 8 5 27 10
43 10 21 0 27 -5 27 -21z m-172 -1 c-40 -14 -34 -25 20 -35 36 -8 43 -12 29
-18 -10 -4 -28 -3 -40 3 -42 20 -69 20 -114 1 -24 -10 -62 -19 -84 -19 -21 0
-39 -4 -39 -10 0 -5 -7 -10 -15 -10 -8 0 -15 9 -15 21 0 11 4 17 10 14 6 -4
16 -2 23 3 7 5 34 13 62 17 50 7 90 27 78 38 -3 4 20 7 53 6 52 0 56 -2 32
-11z m2902 2 c12 -8 9 -10 -13 -10 -16 0 -26 4 -22 10 8 12 16 12 35 0z
m-2675 -10 c-3 -5 -11 -10 -16 -10 -6 0 -7 5 -4 10 3 6 11 10 16 10 6 0 7 -4
4 -10z m2742 -36 c-6 -6 -77 9 -77 16 0 4 18 3 40 -2 23 -6 39 -12 37 -14z
m-157 3 c0 -14 -21 -36 -49 -52 -9 -5 -12 -4 -7 3 4 7 1 12 -8 12 -9 0 -16 7
-16 15 0 10 10 15 30 15 17 0 30 5 30 10 0 6 5 10 10 10 6 0 10 -6 10 -13z
m-1273 -3 c-3 -3 -12 -4 -19 -1 -8 3 -5 6 6 6 11 1 17 -2 13 -5z m720 -9 c9
-24 0 -25 -27 -5 l-25 20 23 0 c12 0 25 -7 29 -15z m-2829 -12 c-2 -10 -11
-19 -21 -21 -16 -3 -17 -1 -7 17 13 25 33 28 28 4z m3455 10 c-7 -2 -19 -2
-25 0 -7 3 -2 5 12 5 14 0 19 -2 13 -5z m-393 -23 c0 -5 -7 -10 -16 -10 -8 0
-12 5 -9 10 3 6 10 10 16 10 5 0 9 -4 9 -10z m231 -10 c5 0 9 -4 9 -10 0 -5
-5 -10 -12 -10 -6 0 -19 -6 -27 -14 -17 -15 -125 -25 -138 -13 -3 4 2 7 13 8
10 0 42 11 69 24 28 13 56 21 63 19 8 -2 18 -4 23 -4z m-1331 -10 c0 -5 -4
-10 -10 -10 -5 0 -10 5 -10 10 0 6 5 10 10 10 6 0 10 -4 10 -10z m42 -20 c-13
-23 -22 -29 -38 -25 -19 4 -22 1 -20 -29 1 -19 -2 -32 -6 -30 -5 3 -8 12 -8
20 0 18 -17 18 -36 0 -20 -20 -18 -24 13 -28 29 -3 47 -38 20 -38 -8 0 -20
-13 -27 -30 -7 -16 -19 -30 -26 -30 -17 0 -19 36 -3 46 8 4 7 9 -2 15 -12 7
-12 9 0 9 11 0 11 3 1 15 -7 9 -27 14 -49 14 -97 -4 -121 0 -121 20 0 11 -6
22 -12 24 -9 3 -2 14 17 31 36 30 43 31 67 9 11 -10 34 -17 53 -16 24 1 35 -3
35 -13 0 -8 7 -14 15 -14 8 0 15 7 15 15 0 9 9 15 25 15 14 0 36 11 48 24 12
13 30 24 39 25 16 1 16 -1 0 -29z m-482 4 c11 -12 11 -17 -1 -29 -11 -10 -30
-11 -79 -6 -64 7 -65 8 -35 20 76 33 98 36 115 15z m50 -37 c0 -3 -7 -7 -15
-11 -11 -4 -15 2 -15 20 0 23 2 24 15 10 8 -8 15 -17 15 -19z m1259 -29 c23
-35 41 -72 41 -83 0 -27 -88 -125 -154 -174 -74 -54 -240 -151 -259 -151 -21
0 -28 13 -32 63 -3 42 -23 123 -45 185 -7 18 -10 38 -7 45 3 8 34 24 69 36 34
13 67 27 73 32 5 5 19 9 31 9 21 0 167 71 189 91 25 24 54 8 94 -53z m-1209
32 c0 -5 -8 -10 -17 -10 -15 0 -16 2 -3 10 19 12 20 12 20 0z m556 -47 c49
-34 87 -67 90 -80 4 -13 -4 -40 -19 -70 -14 -26 -34 -68 -45 -93 -11 -25 -27
-62 -36 -82 -10 -21 -19 -38 -22 -38 -48 0 -194 179 -194 239 0 9 82 133 108
164 8 9 19 17 24 17 6 0 48 -26 94 -57z m-5409 -35 c-2 -13 -4 -3 -4 22 0 25
2 35 4 23 2 -13 2 -33 0 -45z m5082 -4 c2 -2 -12 -4 -33 -4 -22 0 -35 4 -31
10 5 9 52 4 64 -6z m1131 -34 c0 -5 -7 -7 -15 -4 -8 4 -15 8 -15 10 0 2 7 4
15 4 8 0 15 -4 15 -10z m2665 -10 c3 -5 -1 -10 -9 -10 -9 0 -16 5 -16 10 0 6
4 10 9 10 6 0 13 -4 16 -10z m-3299 -52 c25 -49 44 -123 54 -217 5 -46 13 -88
17 -92 7 -7 93 30 148 64 102 61 201 137 258 196 69 72 94 83 117 56 7 -8 16
-15 20 -15 12 0 143 -80 168 -103 18 -16 21 -28 16 -50 l-6 -29 26 17 c35 23
53 18 231 -71 142 -71 457 -255 500 -293 11 -10 86 -61 168 -115 149 -99 190
-137 203 -191 4 -16 20 -48 35 -71 55 -80 83 -155 84 -219 0 -56 -4 -67 -57
-155 -81 -135 -200 -254 -418 -422 -114 -88 -355 -249 -407 -272 l-42 -19 -79
47 c-79 46 -117 55 -152 36 -11 -6 -47 -13 -80 -17 -44 -4 -63 -11 -67 -22
-24 -77 -93 -160 -168 -199 -45 -24 -61 -27 -155 -27 -95 0 -111 3 -165 29
-72 35 -165 122 -205 192 -45 78 -60 138 -60 242 0 80 4 100 28 155 35 76 94
138 164 173 45 22 67 26 149 27 l96 1 101 -51 c71 -35 110 -49 128 -45 25 4
26 7 18 51 -10 62 -8 81 14 132 27 61 77 110 142 139 30 13 67 32 81 41 14 10
54 28 90 40 35 12 69 27 74 34 6 6 34 29 62 50 56 42 62 52 19 35 -24 -9 -33
-5 -90 44 -35 29 -95 72 -133 94 -39 23 -78 53 -87 67 -10 15 -20 25 -22 22
-10 -9 42 -75 86 -108 86 -66 163 -146 157 -162 -3 -8 -36 -29 -74 -47 -37
-18 -80 -41 -94 -51 -57 -40 -156 -87 -168 -79 -11 6 -56 160 -91 310 -32 134
-39 145 -90 136 -46 -7 -102 -20 -230 -52 -115 -28 -114 -28 -315 -73 -77 -17
-165 -38 -195 -47 -131 -35 -189 -47 -244 -51 -53 -4 -65 -10 -113 -51 -31
-27 -51 -52 -48 -60 5 -13 36 -168 55 -272 17 -99 61 -334 70 -380 5 -25 14
-74 20 -110 6 -36 16 -85 21 -110 55 -276 74 -405 62 -413 -10 -6 -102 8 -238
38 -107 23 -283 82 -350 118 l-60 32 -8 73 c-6 55 -4 87 7 125 8 29 28 122 45
207 17 85 40 198 51 250 12 52 25 118 30 146 5 28 13 69 19 90 36 139 70 361
52 334 -6 -8 -11 -29 -11 -46 0 -17 -3 -34 -7 -38 -5 -4 -14 -31 -21 -59 -7
-29 -17 -68 -22 -87 -5 -19 -18 -71 -29 -115 -11 -44 -25 -100 -30 -125 -6
-25 -21 -94 -35 -155 -54 -238 -65 -291 -72 -328 -3 -20 -9 -37 -13 -37 -4 0
-31 28 -61 61 -60 69 -153 121 -248 139 -52 10 -72 7 -220 -27 -33 -8 -62 22
-62 65 0 21 13 60 33 96 19 34 39 77 46 97 6 20 59 121 116 224 58 104 105
189 105 190 0 1 23 39 50 85 28 46 50 87 50 92 0 9 244 382 265 404 5 6 27 36
48 65 44 62 152 151 176 147 13 -3 16 -16 16 -66 0 -34 3 -62 7 -62 5 0 8 21
9 48 1 95 18 140 60 164 7 4 51 30 97 58 46 27 90 50 97 50 8 0 17 5 20 10 14
23 51 8 82 -33 46 -61 124 -141 156 -161 39 -24 60 -8 76 55 25 96 86 226 109
232 9 3 18 5 19 6 1 0 10 -14 19 -31z m767 -5 c-7 -2 -19 -2 -25 0 -7 3 -2 5
12 5 14 0 19 -2 13 -5z m2300 0 c-7 -2 -19 -2 -25 0 -7 3 -2 5 12 5 14 0 19
-2 13 -5z m20 -38 c1 -5 -10 -11 -25 -13 -16 -2 -28 1 -28 7 0 20 49 26 53 6z
m-63 -40 c0 -8 -9 -15 -20 -15 -25 0 -26 17 -2 23 9 3 18 5 20 6 1 0 2 -6 2
-14z m40 11 c0 -2 -7 -6 -15 -10 -8 -3 -15 -1 -15 4 0 6 7 10 15 10 8 0 15 -2
15 -4z m-3835 -106 c9 -15 -3 -30 -20 -24 -7 3 -11 12 -8 20 6 16 19 18 28 4z
m3519 -5 c22 -16 11 -39 -15 -32 -12 3 -19 0 -19 -9 0 -8 -9 -14 -20 -14 l-21
0 21 22 c11 12 20 28 20 35 0 17 10 16 34 -2z m-3604 -86 c0 -5 -4 -9 -10 -9
-5 0 -10 7 -10 16 0 8 5 12 10 9 6 -3 10 -10 10 -16z m-4690 -169 c0 -73 -4
-120 -10 -120 -6 0 -10 47 -10 120 0 73 4 120 10 120 6 0 10 -47 10 -120z m17
68 c-2 -13 -4 -5 -4 17 -1 22 1 32 4 23 2 -10 2 -28 0 -40z m4513 -38 c0 -5
-4 -10 -10 -10 -5 0 -10 5 -10 10 0 6 5 10 10 10 6 0 10 -4 10 -10z m2770 -25
c0 -8 -4 -15 -9 -15 -13 0 -22 16 -14 24 11 11 23 6 23 -9z m-74 -21 c29 -7
32 -24 4 -24 -11 0 -23 -1 -26 -2 -4 -2 -14 8 -23 22 -15 23 -15 24 2 17 11
-4 30 -10 43 -13z m-64 -32 c-19 -6 -44 6 -37 18 4 7 14 6 28 -2 14 -7 17 -13
9 -16z m331 1 c-7 -2 -19 -2 -25 0 -7 3 -2 5 12 5 14 0 19 -2 13 -5z m102 -3
c15 13 17 12 14 -5 -3 -11 -13 -21 -24 -23 -11 -2 -27 -6 -35 -9 -8 -3 -26 -7
-40 -9 -14 -2 -26 -8 -28 -14 -5 -14 -22 -2 -22 14 0 9 18 16 46 21 26 4 48
13 51 22 4 11 8 12 14 2 6 -10 11 -10 24 1z m-350 -19 c3 -6 -4 -15 -15 -21
-16 -9 -25 -8 -37 2 -14 11 -13 13 8 19 35 10 37 10 44 0z m55 -40 c0 -6 19
-12 43 -14 36 -3 34 -4 -15 -5 -46 -2 -58 1 -58 13 0 8 7 15 15 15 8 0 15 -4
15 -9z m115 -31 c3 -5 -1 -10 -9 -10 -9 0 -16 5 -16 10 0 6 4 10 9 10 6 0 13
-4 16 -10z m-1276 -233 c10 -34 22 -80 26 -102 3 -22 20 -95 37 -162 l30 -123
-27 -47 c-17 -31 -28 -70 -32 -110 -3 -35 -10 -63 -15 -63 -9 0 -45 19 -68 36
-8 6 -41 21 -73 33 -85 31 -217 30 -292 -4 -124 -55 -204 -155 -232 -292 -19
-93 -9 -205 26 -275 11 -24 21 -50 21 -56 0 -7 5 -12 10 -12 6 0 10 -6 10 -14
0 -7 29 -45 65 -84 113 -122 252 -174 403 -152 42 7 79 15 82 19 3 3 21 14 41
24 53 27 123 100 155 161 25 48 30 53 53 46 17 -4 28 -16 32 -36 4 -16 28
-109 53 -208 26 -98 45 -184 43 -190 -3 -6 -51 -22 -108 -35 -57 -13 -149 -35
-204 -48 -96 -23 -133 -31 -380 -88 -60 -14 -119 -25 -131 -25 -11 0 -24 -3
-28 -7 -9 -9 -219 -53 -227 -47 -6 4 -9 15 -29 114 -27 141 -41 213 -75 375
-21 99 -41 200 -45 225 -4 25 -20 104 -35 175 -29 141 -29 138 -73 360 -16 83
-42 210 -57 282 -15 73 -25 139 -22 146 5 15 27 21 202 62 61 14 128 30 150
35 151 36 234 55 335 77 63 13 131 29 150 33 19 5 55 14 80 19 25 6 59 14 75
19 17 5 35 7 42 5 6 -3 21 -32 32 -66z m-2526 -84 c-7 -2 -21 -2 -30 0 -10 3
-4 5 12 5 17 0 24 -2 18 -5z m1444 -289 c18 -87 37 -188 43 -224 5 -36 14 -85
19 -110 12 -59 28 -145 47 -250 9 -47 20 -105 24 -130 16 -81 60 -313 81 -425
11 -60 30 -164 43 -230 22 -114 23 -151 6 -140 -4 2 -19 62 -33 132 -52 249
-88 429 -97 473 -8 41 -49 242 -71 350 -6 25 -16 79 -24 120 -30 160 -52 267
-64 308 -5 18 -10 35 -10 37 1 15 -14 98 -28 158 -12 54 -13 70 -3 82 7 9 18
14 24 12 6 -2 25 -75 43 -163z m-853 -569 c95 -29 157 -77 218 -171 127 -197
37 -477 -180 -556 -58 -21 -151 -23 -213 -4 -98 30 -180 104 -227 206 -23 48
-26 69 -26 165 -1 102 1 114 28 167 82 162 244 240 400 193z m2347 -231 c89
-60 90 -62 101 -164 5 -51 7 -94 5 -97 -2 -2 -30 -13 -62 -24 -50 -17 -60 -18
-72 -6 -13 13 -65 187 -80 264 -13 73 26 83 108 27z"/>
<path d="M1138 8583 c12 -2 32 -2 45 0 12 2 2 4 -23 4 -25 0 -35 -2 -22 -4z"/>
<path d="M1218 8563 c12 -2 32 -2 45 0 12 2 2 4 -23 4 -25 0 -35 -2 -22 -4z"/>
<path d="M640 8220 c0 -18 7 -20 80 -20 73 0 80 2 80 20 0 18 -7 20 -80 20
-73 0 -80 -2 -80 -20z"/>
<path d="M313 8120 c0 -25 2 -35 4 -22 2 12 2 32 0 45 -2 12 -4 2 -4 -23z"/>
<path d="M1265 8070 c3 -5 8 -10 11 -10 2 0 4 5 4 10 0 6 -5 10 -11 10 -5 0
-7 -4 -4 -10z"/>
<path d="M290 7834 c0 -57 -3 -83 -11 -79 -7 5 -8 -111 -2 -392 4 -219 7 -456
6 -528 -5 -375 0 -991 7 -995 5 -3 11 -39 13 -80 2 -41 2 -34 1 15 -2 50 -6
281 -10 514 -5 353 -4 425 7 432 11 7 13 46 11 201 -1 106 1 266 4 356 6 150
8 162 25 162 17 0 19 8 19 80 0 73 -2 80 -19 80 -16 0 -21 8 -24 43 -2 23 -4
-13 -5 -80 -1 -84 -6 -123 -13 -123 -14 0 -2 300 12 315 5 5 9 44 9 87 0 63
-3 78 -15 78 -12 0 -15 -16 -15 -86z"/>
<path d="M6122 7718 c-7 -7 -12 -39 -12 -73 0 -72 34 -413 50 -500 7 -33 15
-91 20 -130 5 -38 12 -83 16 -100 10 -47 56 -199 63 -210 4 -5 15 -37 25 -70
50 -159 138 -412 152 -433 14 -21 18 -22 30 -10 13 12 7 36 -41 182 -30 93
-55 181 -55 197 0 16 -7 50 -16 76 -9 26 -22 73 -29 103 -8 30 -24 98 -38 150
-14 52 -28 118 -32 145 -4 28 -15 84 -25 125 -25 103 -40 229 -47 395 -3 77
-10 146 -16 153 -12 15 -30 15 -45 0z"/>
<path d="M1040 7570 c0 -11 7 -20 15 -20 13 0 14 4 5 20 -6 11 -13 20 -15 20
-3 0 -5 -9 -5 -20z"/>
<path d="M738 7533 c12 -2 32 -2 45 0 12 2 2 4 -23 4 -25 0 -35 -2 -22 -4z"/>
<path d="M640 7480 l0 -40 80 0 80 0 0 40 0 40 -80 0 -80 0 0 -40z"/>
<path d="M680 7270 c0 -5 -9 -10 -20 -10 -25 0 -27 -35 -3 -44 14 -6 12 -10
-14 -25 -42 -26 -53 -65 -55 -200 -1 -64 -3 -97 -5 -73 -2 23 -8 42 -14 42 -5
0 -9 36 -9 80 l0 80 -40 0 -40 0 0 -80 c0 -47 4 -80 10 -80 6 0 10 -33 10 -80
l0 -80 38 0 c20 -1 52 -9 71 -19 31 -16 32 -19 16 -28 -20 -12 -11 -37 11 -29
8 3 11 0 7 -10 -4 -11 9 -14 76 -14 45 0 81 4 81 9 0 5 9 12 20 15 11 3 29 9
40 12 17 4 20 1 20 -24 l0 -30 -82 -6 c-157 -12 -163 -13 -80 -14 45 -1 82 -6
82 -10 0 -5 54 -9 120 -9 l120 0 0 39 c0 24 5 38 13 38 6 0 3 6 -7 12 -15 8
-21 8 -24 0 -2 -7 -17 -12 -33 -12 -22 0 -29 5 -29 20 0 17 -7 20 -40 20 -33
0 -40 3 -40 20 0 17 7 20 40 20 22 0 40 -4 40 -10 0 -5 4 -10 10 -10 18 0 22
47 6 78 -26 50 -21 62 24 62 33 0 40 -3 40 -20 0 -12 -7 -20 -16 -20 -15 0
-15 -2 0 -25 9 -13 16 -31 16 -40 0 -8 3 -15 8 -15 20 0 52 -69 52 -113 0 -37
4 -47 16 -47 9 0 23 8 30 18 13 16 15 16 28 0 11 -15 29 -18 100 -18 l86 0 0
40 0 40 -40 0 c-29 0 -40 4 -40 15 0 8 -7 15 -15 15 -19 0 -19 2 0 47 12 28
15 69 13 180 -2 79 -6 143 -9 143 -9 0 -22 71 -14 78 3 4 10 0 15 -8 8 -12 10
-11 10 6 0 38 -12 84 -22 84 -6 0 -7 -11 -4 -24 3 -14 2 -27 -3 -31 -10 -6
-43 34 -37 44 7 11 -105 11 -125 1 -13 -7 -19 -7 -19 0 0 6 -24 10 -55 10 -50
0 -55 -2 -55 -22 0 -20 1 -21 20 -3 19 17 20 17 35 -19 14 -32 14 -40 0 -72
-15 -36 -16 -36 -35 -19 -19 18 -20 17 -20 -3 0 -19 -6 -22 -40 -22 -39 0 -40
1 -46 40 -8 48 -24 53 -24 8 l0 -33 -26 33 c-14 17 -33 32 -42 32 -16 1 -16 2
1 14 23 18 22 46 -3 46 -11 0 -20 5 -20 10 0 6 -18 10 -40 10 -22 0 -40 -4
-40 -10z m52 -22 c-9 -9 -15 -9 -24 0 -9 9 -7 12 12 12 19 0 21 -3 12 -12z
m338 -23 c0 -15 -6 -25 -15 -25 -12 0 -13 4 -3 25 6 14 13 25 15 25 1 0 3 -11
3 -25z m-60 -145 c0 -22 5 -40 10 -40 6 0 10 18 10 40 0 29 4 40 15 40 25 0 9
-98 -20 -129 l-23 -24 -21 44 c-12 23 -21 58 -21 76 0 29 3 33 25 33 23 0 25
-4 25 -40z m-93 -102 c-2 -13 -4 -3 -4 22 0 25 2 35 4 23 2 -13 2 -33 0 -45z
m-40 -10 c-3 -7 -5 -2 -5 12 0 14 2 19 5 13 2 -7 2 -19 0 -25z m300 -244 c8
-21 -13 -42 -28 -27 -13 13 -5 43 11 43 6 0 13 -7 17 -16z m103 -40 c0 -8 -5
-12 -10 -9 -6 4 -8 11 -5 16 9 14 15 11 15 -7z"/>
<path d="M7684 6946 c-6 -15 30 -88 52 -107 8 -6 14 -18 14 -26 0 -16 44 -63
58 -63 6 0 18 19 28 43 10 23 20 45 21 48 2 3 -8 11 -22 17 -14 6 -25 18 -25
27 0 8 -3 15 -7 15 -5 0 -16 14 -25 30 -14 25 -24 30 -53 30 -21 0 -38 -6 -41
-14z"/>
<path d="M560 6750 c0 -5 5 -10 11 -10 5 0 7 5 4 10 -3 6 -8 10 -11 10 -2 0
-4 -4 -4 -10z"/>
<path d="M312 6403 l-2 -243 25 0 25 0 0 160 c0 152 -1 160 -20 160 -17 0 -20
8 -23 83 -1 45 -4 -27 -5 -160z"/>
<path d="M7942 6575 c-16 -36 -15 -97 3 -121 8 -10 15 -27 15 -36 0 -22 9 -23
38 -2 29 20 29 84 -1 138 -27 49 -40 54 -55 21z"/>
<path d="M312 5398 c1 -68 3 -104 5 -80 3 34 8 42 24 42 17 0 19 7 19 80 0 79
0 80 -25 80 l-25 0 2 -122z"/>
<path d="M4300 5294 c-139 -21 -177 -31 -242 -63 -56 -28 -74 -42 -76 -60 -2
-13 1 -28 7 -34 17 -17 13 -65 -6 -76 -10 -5 -16 -12 -13 -14 5 -5 96 6 140
17 46 11 55 -4 40 -71 -33 -147 -18 -284 48 -421 34 -71 104 -163 116 -151 3
3 -3 14 -13 26 -38 40 -93 133 -110 185 -16 48 -18 321 -2 326 8 3 9 16 5 38
-4 25 -2 40 9 52 14 15 42 17 259 17 253 0 414 -15 456 -41 33 -22 44 -59 43
-152 0 -45 5 -95 11 -110 l11 -27 9 35 c6 19 8 81 5 136 -4 65 -2 105 5 112
10 10 54 1 111 -23 31 -13 18 13 -18 35 -39 24 -42 38 -21 98 14 39 14 41 -9
56 -58 38 -250 86 -425 106 -81 9 -287 11 -340 4z"/>
<path d="M1352 5065 c0 -16 2 -22 5 -12 2 9 2 23 0 30 -3 6 -5 -1 -5 -18z"/>
<path d="M960 5000 c0 -33 3 -40 20 -40 17 0 20 7 20 40 0 33 -3 40 -20 40
-17 0 -20 -7 -20 -40z"/>
<path d="M1043 4840 c0 -25 2 -35 4 -22 2 12 2 32 0 45 -2 12 -4 2 -4 -23z"/>
<path d="M4966 4694 c-4 -14 -5 -28 -3 -31 3 -2 8 8 11 23 4 14 5 28 3 31 -3
2 -8 -8 -11 -23z"/>
<path d="M4937 4620 c-3 -11 -1 -20 4 -20 5 0 9 9 9 20 0 11 -2 20 -4 20 -2 0
-6 -9 -9 -20z"/>
<path d="M4916 4575 c-3 -8 -1 -15 4 -15 6 0 10 7 10 15 0 8 -2 15 -4 15 -2 0
-6 -7 -10 -15z"/>
<path d="M1050 4541 c5 -11 10 -29 10 -40 0 -12 5 -21 11 -21 10 0 4 52 -8 73
-10 17 -23 6 -13 -12z"/>
<path d="M4890 4533 c0 -6 -25 -37 -56 -68 -65 -68 -67 -83 -2 -22 46 43 74
84 64 95 -3 3 -6 0 -6 -5z"/>
<path d="M4360 4380 c14 -11 32 -20 41 -20 8 0 20 -5 27 -12 44 -44 303 -12
337 42 9 14 5 13 -56 -17 -48 -25 -64 -28 -154 -28 -90 1 -105 4 -148 28 -56
31 -83 35 -47 7z"/>
<path d="M320 4200 c0 -33 3 -40 20 -40 17 0 20 7 20 40 0 33 -3 40 -20 40
-17 0 -20 -7 -20 -40z"/>
<path d="M5760 3914 c-36 -19 -75 -34 -88 -34 -13 0 -31 -4 -40 -9 -34 -18
-162 17 -200 56 -8 8 -17 11 -21 8 -7 -8 32 -39 81 -65 72 -38 204 -17 322 51
71 41 27 35 -54 -7z"/>
<path d="M1665 3500 c-3 -5 -1 -10 4 -10 6 0 11 5 11 10 0 6 -2 10 -4 10 -3 0
-8 -4 -11 -10z"/>
<path d="M2720 3400 l0 -40 40 0 40 0 0 40 0 40 -40 0 -40 0 0 -40z"/>
<path d="M3120 3410 c0 -11 7 -20 15 -20 13 0 14 4 5 20 -6 11 -13 20 -15 20
-3 0 -5 -9 -5 -20z"/>
<path d="M6420 3250 c0 -5 7 -10 15 -10 8 0 15 5 15 10 0 6 -7 10 -15 10 -8 0
-15 -4 -15 -10z"/>
<path d="M5298 3223 c12 -2 32 -2 45 0 12 2 2 4 -23 4 -25 0 -35 -2 -22 -4z"/>
<path d="M3280 3151 c0 -25 6 -27 13 -6 4 8 2 17 -3 20 -6 4 -10 -3 -10 -14z"/>
<path d="M4415 3154 c-11 -8 -36 -14 -55 -13 -19 1 -43 1 -52 0 -22 -1 -24
-21 -3 -21 8 0 15 -4 15 -10 0 -5 18 -10 40 -10 57 0 55 -27 -2 -33 l-43 -4
43 -1 c23 -1 42 -6 42 -12 0 -5 18 -10 40 -10 39 0 40 1 40 34 0 19 3 42 7 52
5 14 3 16 -12 10 -11 -4 -16 -4 -12 0 7 7 -10 34 -22 34 -3 0 -15 -7 -26 -16z"/>
<path d="M4520 3128 c0 -4 19 -8 42 -8 23 0 38 3 34 7 -10 10 -76 11 -76 1z"/>
<path d="M1120 2935 c0 -25 -14 -34 -24 -16 -8 12 -56 20 -56 10 0 -5 -9 -9
-19 -9 -61 0 -93 -59 -99 -185 -4 -76 -15 -115 -34 -115 -2 0 -1 40 0 90 l4
90 -26 0 c-25 0 -25 -2 -29 -82 l-3 -83 -2 83 c-2 65 -5 82 -17 82 -13 0 -15
-24 -15 -160 l0 -160 144 0 c115 0 146 3 156 15 10 12 9 16 -4 21 -18 7 -12
24 10 24 9 0 14 -11 14 -30 l0 -30 80 0 80 0 0 98 c0 86 -3 101 -20 117 -19
17 -20 17 -37 -21 l-17 -39 -7 30 c-5 22 -6 18 -3 -15 3 -41 2 -43 -11 -26
-20 27 -20 96 0 96 10 0 15 9 14 28 0 15 -3 21 -6 15 -8 -22 -23 -14 -23 12 0
14 -4 25 -10 25 -5 0 -10 9 -10 21 0 11 -5 29 -10 40 -8 15 -7 19 5 19 10 0
17 -14 21 -40 7 -43 23 -55 25 -17 0 14 2 16 6 7 3 -8 14 -35 24 -59 20 -42
21 -43 40 -26 15 14 19 31 19 77 l0 58 -40 0 -40 0 0 40 0 40 -40 0 c-36 0
-40 -2 -40 -25z m70 -71 c0 -8 -4 -12 -10 -9 -5 3 -10 10 -10 16 0 5 5 9 10 9
6 0 10 -7 10 -16z m-27 -276 c5 -18 8 -19 21 -8 13 10 16 10 16 -4 0 -11 -9
-16 -30 -16 -25 0 -30 4 -30 25 0 31 16 33 23 3z m-183 -19 c0 -5 -9 -9 -20
-9 -22 0 -27 16 -7 23 15 5 27 -1 27 -14z m75 -39 c3 -5 1 -10 -4 -10 -6 0
-11 5 -11 10 0 6 2 10 4 10 3 0 8 -4 11 -10z"/>
<path d="M880 2860 c0 -11 2 -20 5 -20 2 0 9 9 15 20 9 16 8 20 -5 20 -8 0
-15 -9 -15 -20z"/>
<path d="M5202 2860 c0 -14 2 -19 5 -12 2 6 2 18 0 25 -3 6 -5 1 -5 -13z"/>
<path d="M5060 2794 c0 -10 28 -34 39 -34 6 0 11 -5 11 -10 0 -6 11 -3 25 6
27 17 34 37 11 28 -8 -3 -17 -1 -21 5 -6 11 -65 16 -65 5z"/>
<path d="M4800 2629 c0 -5 5 -7 10 -4 6 3 10 8 10 11 0 2 -4 4 -10 4 -5 0 -10
-5 -10 -11z"/>
<path d="M10050 4793 c0 -10 4 -25 10 -33 8 -12 10 -12 16 3 7 20 -1 47 -16
47 -5 0 -10 -8 -10 -17z"/>
<path d="M9540 4454 c0 -4 10 -16 23 -27 15 -13 18 -21 10 -24 -9 -3 -13 -30
-13 -84 0 -72 2 -79 20 -79 18 0 20 7 20 73 0 115 -8 147 -36 147 -13 0 -24
-3 -24 -6z"/>
<path d="M9272 4386 c7 -8 15 -12 17 -11 5 6 -10 25 -20 25 -5 0 -4 -6 3 -14z"/>
<path d="M9262 4350 c0 -14 2 -19 5 -12 2 6 2 18 0 25 -3 6 -5 1 -5 -13z"/>
<path d="M10080 4298 c0 -19 2 -20 10 -8 13 19 13 30 0 30 -5 0 -10 -10 -10
-22z"/>
<path d="M10105 4250 c-4 -6 9 -10 31 -10 42 0 42 4 2 14 -15 3 -30 2 -33 -4z"/>
<path d="M9260 4203 c0 -28 3 -34 10 -23 13 20 13 60 0 60 -5 0 -10 -17 -10
-37z"/>
<path d="M9267 4074 c-4 -4 -7 -41 -7 -81 0 -55 3 -74 13 -71 7 3 13 29 15 73
3 64 -5 94 -21 79z"/>
<path d="M10353 4040 c0 -25 2 -35 4 -22 2 12 2 32 0 45 -2 12 -4 2 -4 -23z"/>
<path d="M9112 3740 c0 -14 2 -19 5 -12 2 6 2 18 0 25 -3 6 -5 1 -5 -13z"/>
<path d="M9072 3644 c-6 -36 -18 -74 -26 -83 -9 -9 -17 -32 -18 -51 -3 -33 -1
-35 25 -32 22 3 27 -1 27 -17 0 -12 -4 -21 -10 -21 -5 0 -10 -18 -10 -40 0
-22 -4 -40 -10 -40 -5 0 -10 -18 -10 -40 l0 -40 40 0 40 0 0 40 c0 22 -4 40
-10 40 -5 0 -10 18 -10 40 0 22 5 40 10 40 6 0 10 9 10 20 0 13 -7 20 -19 20
-23 0 -35 48 -17 70 13 14 15 144 4 156 -3 2 -10 -26 -16 -62z"/>
<path d="M8717 3515 c7 -36 9 -39 22 -30 16 9 13 35 -3 35 -8 0 -17 6 -20 13
-3 6 -3 -1 1 -18z"/>
<path d="M8617 3412 c-24 -27 -22 -52 6 -52 20 1 21 2 5 14 -16 12 -16 14 -1
29 9 9 14 19 12 22 -3 3 -13 -3 -22 -13z"/>
<path d="M8453 3283 c9 -2 23 -2 30 0 6 3 -1 5 -18 5 -16 0 -22 -2 -12 -5z"/>
<path d="M8910 3235 c-19 -14 -42 -25 -51 -25 -12 0 -15 -7 -12 -24 3 -13 0
-33 -6 -45 -11 -20 -10 -21 44 -21 30 0 54 3 54 8 -3 19 2 25 11 12 7 -11 10
5 10 53 0 37 -3 67 -7 67 -5 -1 -24 -12 -43 -25z"/>
<path d="M8185 3210 c3 -5 0 -10 -9 -10 -8 0 -16 -5 -18 -12 -6 -16 3 -68 11
-68 4 0 6 14 3 30 l-4 30 71 0 71 0 0 -32 c0 -22 3 -29 10 -22 7 7 8 28 4 52
l-7 42 -69 0 c-44 0 -67 -4 -63 -10z"/>
<path d="M9360 3180 c0 -17 -7 -20 -40 -20 -36 0 -40 -3 -40 -24 0 -22 5 -25
43 -29 l42 -4 -42 -1 c-24 -1 -43 -7 -43 -12 0 -15 217 0 249 17 19 9 21 13 9
13 -14 0 -18 9 -18 40 l0 40 -80 0 c-73 0 -80 -2 -80 -20z m153 -67 c-7 -2
-19 -2 -25 0 -7 3 -2 5 12 5 14 0 19 -2 13 -5z"/>
<path d="M7545 3160 c-3 -5 -1 -10 6 -10 24 0 -1 -13 -32 -16 -54 -7 -46 -14
15 -14 32 0 55 4 52 9 -4 5 0 12 6 14 10 4 9 8 -2 16 -19 14 -37 14 -45 1z"/>
<path d="M7133 3133 c9 -2 23 -2 30 0 6 3 -1 5 -18 5 -16 0 -22 -2 -12 -5z"/>
<path d="M7205 3135 c23 -8 83 -10 79 -3 -3 4 -24 8 -47 7 -23 0 -37 -2 -32
-4z"/>
<path d="M7360 3100 c0 -17 7 -20 40 -20 33 0 40 3 40 20 0 17 -7 20 -40 20
-33 0 -40 -3 -40 -20z"/>
<path d="M9298 3053 c12 -2 32 -2 45 0 12 2 2 4 -23 4 -25 0 -35 -2 -22 -4z"/>
<path d="M8715 2790 c-3 -5 1 -10 9 -10 9 0 16 5 16 10 0 6 -4 10 -9 10 -6 0
-13 -4 -16 -10z"/>
<path d="M7098 2633 c7 -3 16 -2 19 1 4 3 -2 6 -13 5 -11 0 -14 -3 -6 -6z"/>
<path d="M8338 2613 c-10 -2 -18 -11 -18 -18 0 -11 7 -12 32 -4 18 5 34 9 36
9 2 0 0 5 -3 10 -6 10 -17 11 -47 3z"/>
<path d="M8180 2570 c0 -5 6 -10 14 -10 8 0 18 5 21 10 3 6 -3 10 -14 10 -12
0 -21 -4 -21 -10z"/>
<path d="M6555 2543 c-13 -100 -17 -357 -5 -398 46 -154 132 -235 249 -235 50
0 32 24 -23 32 -60 8 -117 45 -147 95 -13 21 -26 40 -29 43 -31 26 -47 268
-29 430 9 75 -6 106 -16 33z"/>
<path d="M5037 2043 c-4 -3 -7 -16 -6 -27 0 -19 1 -19 10 3 10 24 8 36 -4 24z"/>
<path d="M7003 2023 c-37 -7 -27 -26 11 -21 30 3 34 1 31 -19 -3 -28 3 -28 35
-4 20 16 22 21 11 35 -13 15 -41 18 -88 9z"/>
</g>
</svg>
