<svg xmlns="http://www.w3.org/2000/svg" viewBox="0 0 640 420" role="img" aria-labelledby="title desc">
  <title id="title">LEAP Hand robot demo</title>
  <desc id="desc">A simple line illustration of a robot hand demonstration.</desc>
  <rect width="640" height="420" rx="24" fill="#f7f7f7"/>
  <rect x="66" y="62" width="508" height="296" rx="18" fill="#ffffff" stroke="#d7d7d7" stroke-width="6"/>
  <rect x="96" y="88" width="448" height="238" rx="8" fill="#151515"/>
  <path d="M214 288h212" stroke="#ffffff" stroke-width="14" stroke-linecap="round"/>
  <path d="M250 279c-16-42-20-80-11-115 5-20 31-18 32 3l7 83" fill="none" stroke="#ffffff" stroke-width="18" stroke-linecap="round"/>
  <path d="M308 267l-7-116c-1-23 32-25 35-2l15 112" fill="none" stroke="#ffffff" stroke-width="18" stroke-linecap="round"/>
  <path d="M374 263l10-91c3-22 35-17 32 5l-10 90" fill="none" stroke="#ffffff" stroke-width="18" stroke-linecap="round"/>
  <path d="M238 282c-28-12-45-32-52-59-5-20 19-31 32-15l45 58" fill="none" stroke="#ffffff" stroke-width="18" stroke-linecap="round"/>
  <circle cx="330" cy="244" r="48" fill="#f6f6f6" stroke="#ffffff" stroke-width="8"/>
  <path d="M310 244h40M330 224v40" stroke="#151515" stroke-width="10" stroke-linecap="round"/>
  <path d="M96 348h448" stroke="#d7d7d7" stroke-width="6" stroke-linecap="round"/>
  <circle cx="320" cy="382" r="12" fill="#151515"/>
</svg>
